<svg id="アウトライン化テキスト_見出しミンM31_" data-name="アウトライン化テキスト(見出しミンM31)" xmlns="http://www.w3.org/2000/svg" width="370" height="87.944" viewBox="0 0 370 87.944">
  <g id="_2020年7月4日_7日なかのZERO大ホール" data-name="2020年7月4日〜7日なかのZERO大ホール">
    <path id="パス_38" data-name="パス 38" d="M-428.8,463.641c-4.83,5.483-4.877,5.53-9.238,10.867h8.627c1.736,0,4.174,0,5.252-3.3h1.173l-1.36,8.878h-17.772v-3.1c1.876-2.668,3.986-5.725,7.738-11.352,3.938-5.919,5.111-8.878,5.111-11.548,0-3.493-2.673-4.706-4.83-4.706-4.455,0-5.861,3.785-6.612,5.773l-1.078-.437a16.663,16.663,0,0,1,1.594-5.434,9.1,9.1,0,0,1,8.159-5.094,8.747,8.747,0,0,1,9.1,8.83C-422.944,455.539-423.6,457.675-428.8,463.641Z" transform="translate(442.342 -444.187)" fill="#fff"/>
    <path id="パス_39" data-name="パス 39" d="M-405.364,480.571c-5.392,0-9.565-6.258-9.565-18.192,0-12.225,4.36-18.145,9.565-18.145,5.3,0,9.566,6.064,9.566,18.145C-395.8,474.555-400.112,480.571-405.364,480.571Zm1.266-34.1a1.577,1.577,0,0,0-1.266-.873c-1.219,0-1.876,2.086-2.016,2.522-.8,2.522-1.172,12.614-1.172,16.059,0,2.717.234,15.04,3.188,15.04,1.219,0,1.829-2.038,1.97-2.522.469-1.456,1.219-6.841,1.219-14.312C-402.175,458.837-402.363,448.988-404.1,446.466Z" transform="translate(442.342 -444.185)" fill="#fff"/>
    <path id="パス_40" data-name="パス 40" d="M-374.42,463.641c-4.83,5.483-4.876,5.53-9.238,10.867h8.628c1.736,0,4.173,0,5.252-3.3h1.172l-1.359,8.878h-17.772v-3.1c1.875-2.668,3.986-5.725,7.737-11.352,3.939-5.919,5.111-8.878,5.111-11.548,0-3.493-2.673-4.706-4.83-4.706-4.454,0-5.862,3.785-6.612,5.773l-1.078-.437a16.686,16.686,0,0,1,1.594-5.434,9.1,9.1,0,0,1,8.159-5.094,8.747,8.747,0,0,1,9.1,8.83C-368.559,455.539-369.215,457.675-374.42,463.641Z" transform="translate(442.342 -444.187)" fill="#fff"/>
    <path id="パス_41" data-name="パス 41" d="M-350.979,480.571c-5.393,0-9.565-6.258-9.565-18.192,0-12.225,4.36-18.145,9.565-18.145,5.3,0,9.565,6.064,9.565,18.145C-341.414,474.555-345.727,480.571-350.979,480.571Zm1.266-34.1a1.58,1.58,0,0,0-1.266-.873c-1.219,0-1.876,2.086-2.017,2.522-.8,2.522-1.171,12.614-1.171,16.059,0,2.717.234,15.04,3.188,15.04,1.219,0,1.829-2.038,1.97-2.522.468-1.456,1.218-6.841,1.218-14.312C-347.791,458.837-347.978,448.988-349.713,446.466Z" transform="translate(442.448 -444.185)" fill="#fff"/>
    <path id="パス_42" data-name="パス 42" d="M-302.01,472.217h-11.131v8.453c0,.775-.393,1.07-1.177,1.438a6.82,6.82,0,0,1-2.283.628c-1,0-1.32-.406-1.32-1v-9.523h-15.8l-.429-.849h5.708V460.147l4.852,2.214h5.673V454.98h-7.35a25.829,25.829,0,0,1-8.812,8.525l-.249-.295a34.579,34.579,0,0,0,6.315-14.506l5.564,1.439c.358.111.643.221.643.554,0,.443-.214.516-1.213.812-.428.7-.785,1.255-1.713,2.657h15.447l2.427-2.768a.655.655,0,0,1,.607-.332.85.85,0,0,1,.606.332l2.818,2.437a.888.888,0,0,1,.357.664c0,.369-.321.48-.643.48h-9.6a.663.663,0,0,1,.321.554c0,.406-.357.554-.749.738v6.09h3l2.1-2.546c.179-.221.286-.369.572-.369a.922.922,0,0,1,.641.332l2.5,2.251a.9.9,0,0,1,.322.665c0,.368-.322.479-.607.479h-8.526v8.194h4.78l2.5-3.174c.179-.221.286-.368.608-.368a.918.918,0,0,1,.606.331l2.925,2.879a.888.888,0,0,1,.356.7C-301.369,472.069-301.725,472.217-302.01,472.217Zm-15.911-9.044h-5.958v8.194h5.958Z" transform="translate(442.488 -444.031)" fill="#fff"/>
    <path id="パス_43" data-name="パス 43" d="M-281.734,461.491a72.6,72.6,0,0,0-1.97,18.581h-6.8c.609-10.964,5.252-20.23,11.16-29.837h-8.019c-4.454,0-5.158,2.426-6,5.288h-1.172l1.547-10.867h17.631v3.154A38.655,38.655,0,0,0-281.734,461.491Z" transform="translate(442.534 -444.171)" fill="#fff"/>
    <path id="パス_44" data-name="パス 44" d="M-242.7,454.326v23.955a2.8,2.8,0,0,1-1,2.546,6.751,6.751,0,0,1-3.888,1.145c-1.107,0-1.142-.112-1.178-.887-.178-2.436-1.926-2.878-4.709-3.58v-.369c.071,0,3.925.221,4.674.221,1.07,0,1.391-.627,1.391-1.661v-7.714h-10.381c-.643,5.722-3.461,11.516-10.56,14.321l-.214-.332c3.6-2.769,4.994-6.866,5.743-11.222.607-3.4.607-4.5.607-21.261l4.816,1.994h9.775l1.32-1.551a1.445,1.445,0,0,1,1.106-.479,1.391,1.391,0,0,1,.963.443l2.426,2.141a.877.877,0,0,1,.321.7C-241.49,453.108-241.561,453.145-242.7,454.326Zm-4.709,5.684h-10.06c0,2.067,0,5.167-.214,7.161h10.274Zm0-7.714h-10.06v6.9h10.06Z" transform="translate(442.572 -444.005)" fill="#fff"/>
    <path id="パス_45" data-name="パス 45" d="M-216.416,471.742v4.8c0,1.794.891,2.28,3,2.28v1.261h-12.05v-1.261h.7a2.077,2.077,0,0,0,2.345-2.28v-4.8h-9.894v-1.8l14.4-25.712h1.5v25.712h3.048v1.8Zm-6-16.01-7.972,14.214h7.972Z" transform="translate(442.614 -444.185)" fill="#fff"/>
    <path id="パス_46" data-name="パス 46" d="M-180.863,454.837v24.287c0,1.107-2.319,2.1-3.675,2.1a1.182,1.182,0,0,1-1.32-1.218v-2.326h-12.308V479.2c0,1.919-3.139,2.51-3.817,2.51-1.142,0-1.142-.775-1.142-1.4V449.632l5.067,2.4h12.165l1.355-1.514c.536-.591.892-.664,1.178-.664a1.792,1.792,0,0,1,1.106.48l2.319,1.919a.94.94,0,0,1,.428.812C-179.507,453.471-179.543,453.766-180.863,454.837Zm-4.995-1.958h-12.308V464.4h12.308Zm0,12.366h-12.308v11.59h12.308Z" transform="translate(442.656 -443.998)" fill="#fff"/>
    <path id="パス_47" data-name="パス 47" d="M-139.758,464.623c-.928,1.439-5.1,5.094-8.955,5.094-2.247,0-5.208-1.4-7.456-2.584-4.995-2.621-6.529-2.658-8.027-2.658a10.812,10.812,0,0,0-6.743,2.437l-.5-.591c.928-1.44,5.065-5.094,8.919-5.094,2.283,0,5.244,1.4,7.491,2.583,4.994,2.621,6.528,2.657,8.028,2.657a10.873,10.873,0,0,0,6.742-2.436Z" transform="translate(442.706 -443.651)" fill="#fff"/>
    <path id="パス_48" data-name="パス 48" d="M-119.66,461.491a72.552,72.552,0,0,0-1.969,18.581h-6.8c.609-10.964,5.252-20.23,11.16-29.837h-8.019c-4.454,0-5.158,2.426-6,5.288h-1.171l1.546-10.867h17.631v3.154A38.655,38.655,0,0,0-119.66,461.491Z" transform="translate(442.796 -444.171)" fill="#fff"/>
    <path id="パス_49" data-name="パス 49" d="M-81.2,454.837v24.287c0,1.107-2.319,2.1-3.674,2.1A1.182,1.182,0,0,1-86.2,480.01v-2.326H-98.5V479.2c0,1.919-3.14,2.51-3.818,2.51-1.141,0-1.141-.775-1.141-1.4V449.632l5.066,2.4h12.165l1.356-1.514c.535-.591.891-.664,1.177-.664a1.792,1.792,0,0,1,1.106.48l2.319,1.919a.94.94,0,0,1,.428.812C-79.845,453.471-79.881,453.766-81.2,454.837Zm-5-1.958H-98.5V464.4H-86.2Zm0,12.366H-98.5v11.59H-86.2Z" transform="translate(442.796 -443.998)" fill="#fff"/>
    <path id="パス_50" data-name="パス 50" d="M-425.016,500.92c.76.039,2.166.236,2.166,1.258a1.831,1.831,0,0,1-.57,1.1c-1.825,2-4.978,2.908-7.828,3.695-4.71,10.693-5.546,12.579-6.952,15.253-1.406,2.595-1.634,2.988-2.28,2.988-1.6,0-1.862-1.848-1.862-2.556,0-1.139.38-1.73,1.368-3.145A64.964,64.964,0,0,0-434.7,507.8a7.417,7.417,0,0,1-1.253.118,4.137,4.137,0,0,1-3.154-1.258,7.3,7.3,0,0,1-1.634-3.419.205.205,0,0,1,.228-.236q.114,0,.228.236a4.681,4.681,0,0,0,3.685,1.494,14.526,14.526,0,0,0,3.306-.511c.95-2.752,1.14-3.655,1.14-4.56a2.1,2.1,0,0,0-1.292-2.044c-.341-.2-.341-.355-.341-.432,0-.55.987-.55,1.367-.55,3.229,0,5.092,2.358,4.977,3.539A4.473,4.473,0,0,0-425.016,500.92Zm-.95,18.123a26.374,26.374,0,0,1-.646-4.364c0-3.42,1.785-5.385,6.079-5.385.228,0,1.178.079,1.367.039.115-.039.191-.118.191-.2,0-.708-4.142-1.927-5.7-1.927-.494,0-.684,0-.684-.157,0-.432,2.621-1.258,5.053-1.258,4.141,0,7.029,2.123,7.029,3.7,0,.275-.152,1.612-1.368,1.612a8.464,8.464,0,0,1-1.6-.275,10.272,10.272,0,0,0-3.039-.59c-3.305,0-3.609,2.516-3.609,3.263,0,1.808,1.025,6.918,1.367,7.194a25.039,25.039,0,0,0,2.812,1.139c2.242.983,3.914,2.2,3.914,4.168,0,.944-.456,1.729-1.445,1.729a4.1,4.1,0,0,1-2.09-1.139,6.745,6.745,0,0,0-3.267-1.927c.076,2.908-2.887,4.638-6.079,4.638-.608,0-6.877-.236-6.877-4.8,0-4.245,5.168-4.638,7.181-4.638.608,0,.988.038,1.52.078C-425.89,519.593-425.89,519.476-425.966,519.043Zm-3,7.154c.873,0,3.533-.118,3.533-2.752a.787.787,0,0,0-.152-.55,6.825,6.825,0,0,0-3.534-.826c-2.735,0-3.989,1.062-3.989,2.005C-433.109,525.843-429.917,526.2-428.967,526.2Zm1.861-25c0-.432-.114-.511-.57-.747-.949.629-1.1.708-1.976,2.712C-427.79,502.493-427.106,502.218-427.106,501.2Z" transform="translate(442.342 -442.616)" fill="#fff"/>
    <path id="パス_51" data-name="パス 51" d="M-398.528,521.052a11.8,11.8,0,0,0,4.484,1.65,2.1,2.1,0,0,0,1.785-.944c.912-1.179,2.356-5.464,2.356-9.63,0-1.456,0-3.577-1.976-3.577a9.611,9.611,0,0,0-2.736.667c-1.443,3.537-6.877,15.646-7.864,17.06a2.034,2.034,0,0,1-1.6,1.063c-.95,0-1.748-1.337-1.748-2.909a3.64,3.64,0,0,1,1.026-2.595,34.382,34.382,0,0,0,6.422-11.242c-.418.156-1.749.668-2.015.786-.76.432-1.026.589-1.4.589a5.419,5.419,0,0,1-3.61-2.83,6.032,6.032,0,0,1-.646-1.848c0-.2.038-.275.19-.275a1.95,1.95,0,0,1,.456.118c1.938,1.062,2.128,1.18,2.888,1.18a45.3,45.3,0,0,0,5.281-1.337,32.607,32.607,0,0,0,1.064-5.778,2.145,2.145,0,0,0-1.634-2.319c-.152-.039-.418-.079-.418-.316,0-.393,1.786-.9,2.926-.9,1.9,0,4.179,1.967,4.179,3.5,0,.55-.076.55-.836,1.3-.608.55-1.064,2.043-1.633,3.853.38-.04,1.291-.2,1.823-.2,3.8,0,4.977,3.185,4.977,7.548,0,6.055-2.622,14.309-6.573,14.309-1.4,0-1.823-.472-1.823-1.414,0-.118.075-.63.075-.709,0-.826-1.063-2.2-1.975-3.026a18.363,18.363,0,0,1-1.6-1.494ZM-383.369,515c2.737-.708,3.535-1.14,3.535-2.279s-.609-3.892-3.648-6.761c-.342-.354-2.28-1.809-2.28-1.927s.114-.235.3-.235a18.972,18.972,0,0,1,5.662,2.712,10.657,10.657,0,0,1,4.711,8.728c0,1.886-.989,2.476-1.71,2.476s-.913-.2-1.634-1.14c-.836-1.022-1.976-1.18-4.94-1.18Z" transform="translate(442.342 -442.581)" fill="#fff"/>
    <path id="パス_52" data-name="パス 52" d="M-353.841,526.6c2.621-.472,12.234-3.144,12.234-14.78,0-9.2-7.789-10.457-10.373-10.457a11.229,11.229,0,0,0-1.6.118,3.947,3.947,0,0,1,1.216,2.908c0,2.044-1.557,12.148-7.675,18.713-1.063,1.14-2.165,2.32-3.343,2.32a1.981,1.981,0,0,1-1.938-2.005c-.189-1.415-.266-1.927-.836-2.556-1.443-1.493-2.052-2.162-2.052-5.031a16.493,16.493,0,0,1,16.756-16.039c9.537,0,14.172,6.761,14.172,14.035,0,12.893-14.361,13.129-14.855,13.129a10.339,10.339,0,0,1-1.71-.117ZM-364.4,514.884c0,.276.076,4.638,1.634,4.638,2.812,0,8.131-10.731,8.131-15.92a9.351,9.351,0,0,0-.229-1.848C-361.212,503.484-364.4,509.892-364.4,514.884Z" transform="translate(442.441 -442.507)" fill="#fff"/>
    <path id="パス_53" data-name="パス 53" d="M-325.226,526.97h4.065c2.85,0,5.282-2.516,5.623-2.869a9.8,9.8,0,0,0,3.116-6.172h.95l-.418,10.063h-18.845V526.97l14.209-26.652h-4.255a7.223,7.223,0,0,0-5.167,2.4c-2.013,2.083-2.393,3.773-2.736,6.29h-.987l.379-9.71h18.276v1.022Z" transform="translate(442.487 -442.524)" fill="#fff"/>
    <path id="パス_54" data-name="パス 54" d="M-284.265,527.992h-21.847V526.97c2.546-.038,3.306-.393,3.306-3.066v-20.52c0-2.674-.609-3.027-3.306-3.067V499.3h21.087l.722,9.513h-.988a10.99,10.99,0,0,0-3.343-6.486,7.936,7.936,0,0,0-5.585-2.005c-2.926,0-3.572,1.14-3.572,3.067v9.278h2.052c1.026,0,3.913-.55,4.179-5.464h.95v12.7h-.95c-.228-5.148-2.735-6.211-4.179-6.211h-2.052V523.9c0,1.886.836,3.066,3.534,3.066a8.485,8.485,0,0,0,6.839-3.3,12.867,12.867,0,0,0,2.431-6.054H-284Z" transform="translate(442.52 -442.524)" fill="#fff"/>
    <path id="パス_55" data-name="パス 55" d="M-258.957,528.385c-1.861,0-4.749-1.258-5.2-7-.38-4.482-.418-5.425-1.177-6.6a2.666,2.666,0,0,0-2.318-1.14h-2.773v10.182c0,2.79.607,3.106,3.229,3.144v1.022h-11.55V526.97c2.28-.038,3.3-.432,3.3-3.144V503.5c0-2.79-.645-3.144-3.3-3.184V499.3h13.868c5.319,0,8.32,3.3,8.32,6.919,0,3.774-3.039,6.369-8.511,7,3.268,1.141,4.9,2.909,6.156,7.548.379,1.455,1.1,4.206,2.355,4.206.988,0,1.406-2.476,1.482-2.869h.988C-254.435,524.021-255.2,528.385-258.957,528.385Zm-8.13-28.068c-2.85,0-3.343.786-3.343,3.184v9.161h3.343c3.876,0,4.9-3.027,4.9-6.015C-262.186,502.244-263.364,500.317-267.087,500.317Z" transform="translate(442.557 -442.524)" fill="#fff"/>
    <path id="パス_56" data-name="パス 56" d="M-237.068,528.4c-5.661,0-11.854-6.25-11.854-14.742s6.193-14.7,11.854-14.7,11.817,6.25,11.817,14.7C-225.251,522.186-231.483,528.4-237.068,528.4Zm0-28.342c-5.092,0-6.269,6.564-6.269,13.6,0,6.88,1.1,13.6,6.269,13.6,5.358,0,6.231-7.352,6.231-13.6C-230.837,506.933-231.863,500.055-237.068,500.055Z" transform="translate(442.596 -442.536)" fill="#fff"/>
    <path id="パス_57" data-name="パス 57" d="M-187.937,528.956c-.531,1.3-.607,1.455-.987,1.455-.3,0-.609-.236-1.14-.629-6.953-5.151-9.727-12.854-10.524-20.206-.571,6.172-1.748,9.67-4.028,12.7a20.676,20.676,0,0,1-14.97,8.334l-.076-.393a20.079,20.079,0,0,0,8.891-6.448c3.837-4.834,4.559-9.473,5.053-15.92h-13.3l-.456-.865h13.792c.228-3.931.265-8.806.265-11.675l5.928.59c.456.039.836.315.836.708,0,.432-.152.511-1.519,1.139,0,1.534,0,4.679-.229,9.238h8.473l2.546-3.3a.814.814,0,0,1,.607-.353,1.053,1.053,0,0,1,.723.353l2.963,2.949a.867.867,0,0,1,.418.709c0,.393-.38.51-.684.51h-14.514a29.833,29.833,0,0,0,5.358,10.732,21.956,21.956,0,0,0,10.486,7.311v.432C-185.467,526.558-187.063,526.872-187.937,528.956Z" transform="translate(442.645 -442.662)" fill="#fff"/>
    <path id="パス_58" data-name="パス 58" d="M-169.352,523.007a14.369,14.369,0,0,0,3.876.826c.607,0,.684-.275.722-.59.152-1.14.152-10.613.152-13.444-1.178.157-5.966.708-8.549,1.768-.076.039-1.368.55-1.444.55-.874,0-3.572-2.83-3.572-5.031,0-.118,0-.354.191-.354s.949.668,1.1.786a3.078,3.078,0,0,0,1.862.472c1.14,0,8.7-.9,10.411-1.1,0-3.224,0-6.88-.494-7.863a2.31,2.31,0,0,0-1.1-1.021c-.152-.079-.76-.354-.76-.511,0-.472,1.709-.668,2.127-.668,1.9,0,4.94,1.807,4.94,2.79a12.006,12.006,0,0,1-.836,1.73,17.971,17.971,0,0,0-.607,5.189c1.025-.117,6.268-.628,6.382-.668.19-.039,1.064-.472,1.254-.472.8,0,4.369,1.179,4.369,3.106a1.077,1.077,0,0,1-1.215,1.14,11.4,11.4,0,0,1-2.2-.275,22.24,22.24,0,0,0-3.229-.2c-1.4,0-3.268.079-5.4.274-.076,4.325-.076,4.994-.076,6.92,0,1.18.153,5.464.19,6.643.038.354.152,1.887.152,2.2,0,1.376-.684,4.52-2.279,4.52-.685,0-1.065-.708-1.521-1.886-.342-.9-.76-2.045-4.558-4.639Zm-1.558-6.132c0,4.285-2.355,8.608-4.976,8.608a1.755,1.755,0,0,1-1.634-1.847c0-1.179.645-1.691,2.583-3.263,2.28-1.886,2.888-3.381,3.724-6.093A11.192,11.192,0,0,1-170.91,516.874Zm21.316,4.56c0,1.1-.685,2.241-1.748,2.241-1.482,0-1.938-1.14-3.04-3.7a18.841,18.841,0,0,0-2.736-3.577,8.8,8.8,0,0,0-3.077-2.123C-154.5,514.476-149.594,517.9-149.594,521.434Z" transform="translate(442.694 -442.61)" fill="#fff"/>
    <path id="パス_59" data-name="パス 59" d="M-136.063,511.536c2.394,0,14.1-.707,16.756-.826.342,0,1.937-.51,2.317-.51,1.14,0,3.876,1.886,3.876,3.381,0,.589-.646,1.06-1.444,1.06-.456,0-1.33-.118-1.976-.2a50.818,50.818,0,0,0-6.306-.59c-1.368,0-11.1.747-12.311.944-.418.04-2.355.708-2.849.708s-3.876-1.18-4.142-6.447C-141,510.2-139.71,511.536-136.063,511.536Z" transform="translate(442.796 -442.142)" fill="#fff"/>
    <path id="パス_60" data-name="パス 60" d="M-107.333,527.1c7.294-5.5,8.435-12.854,8.435-18.554,0-1.336,0-4.245-.761-4.993-.227-.2-1.519-.825-1.519-1.1,0-.432,1.9-.55,2.166-.55,2.393,0,5.243,2.555,5.243,3.027,0,.274-.874,1.1-.912,1.3-.152.512-.532,5.072-.646,6.015a17.4,17.4,0,0,1-6.877,12.735,14.489,14.489,0,0,1-4.939,2.477Zm34.537-16.9c-3.116,7.077-10.411,11.755-12.235,12.855a3.373,3.373,0,0,0-1.329,1.219c-.646,1.139-.723,1.258-1.216,1.258-1.482,0-4.179-4.52-4.179-5.307a8.913,8.913,0,0,1,.532-1.415c.38-1.456.38-8.138.38-10.025a43.526,43.526,0,0,0-.267-6.486,2.589,2.589,0,0,0-1.14-1.573c-.189-.118-1.253-.55-1.253-.786,0-.55,1.1-.9,1.938-.9,2.165,0,5.623,2.2,5.623,3.342a8.652,8.652,0,0,1-.646,1.337c-.456,1.1-.874,7.548-.874,12.658,0,2.556,0,2.87.988,2.87,3.191,0,10.677-6.055,13.526-9.16Z" transform="translate(442.796 -442.533)" fill="#fff"/>
  </g>
</svg>
