<svg xmlns="http://www.w3.org/2000/svg" width="920" height="140.711" viewBox="0 0 920 140.711">
  <g id="アウトライン化テキスト_見出しミンM31_" data-name="アウトライン化テキスト(見出しミンM31)" transform="translate(0 0)">
    <g id="完全版マハーバーラタ" transform="translate(0 56.086)">
      <path id="パス_2" data-name="パス 2" d="M180.263-124.344H155.527c-7.378,0-7.378-6.375-7.378-7.993v-27.479H136.867l5.641,1.168c.781.18,2,.718,2,1.616s-.607,1.078-2.343,1.706c-.434,9.968-4.34,18.947-8.766,23.707-5.642,6.016-15.275,9.7-25.517,10.148l-.26-.9c18.747-7.185,21.958-18.229,22.305-37.447H109.44l-1.041-1.975h61.362l4.34-6.285a1.587,1.587,0,0,1,1.388-.808,2.68,2.68,0,0,1,1.649.718l7.2,5.567a1.92,1.92,0,0,1,.868,1.616c0,.9-.781,1.167-1.476,1.167H161.342a1.737,1.737,0,0,1,.174.719c0,1.078-.869,1.347-2.257,1.886v19.036c0,1.976,1.042,3.054,2.864,3.054h13.54c1.909,0,3.124-1.886,3.645-3.323,1.129-2.873,2.951-8.8,4.079-12.662l.868.18-.781,13.65a3.283,3.283,0,0,0,1.042,2.963,6.263,6.263,0,0,1,1.562,4.22A5.746,5.746,0,0,1,180.263-124.344Zm3.9-59.267c-.26,0-2.083-.18-2.517-.18a68.548,68.548,0,0,1-10.675,5.657l2,1.706a2.145,2.145,0,0,1,.781,1.616c0,.9-.781,1.168-1.475,1.168h-49.9l-1.042-1.976H159.52l4.252-6.2a1.593,1.593,0,0,1,1.389-.809,2.427,2.427,0,0,1,1.562.809l2.17,1.885a39.528,39.528,0,0,0,2.256-7.9H123.24c.521,5.747-1.822,14.548-9.2,14.548-2.083,0-6.336-1.078-6.336-5.927,0-3.232,1.041-3.95,6.075-7.543,3.992-2.873,4.513-5.926,5.034-11.584h.868a25.819,25.819,0,0,1,3.3,8.441h19.268v-12.033l9.981.539c.607.09,3.385.18,3.385,1.8,0,.718-.26,1.347-2.951,2.784v6.913h18.226l2.691-4.13a3.374,3.374,0,0,1,2.43-1.437,3.044,3.044,0,0,1,2.17.539L185.9-188.1a2.589,2.589,0,0,1,1.042,2.155C186.946-184.78,186.165-183.612,184.168-183.612Z" transform="translate(-107.618 204.374)" fill="#fff"/>
      <path id="パス_3" data-name="パス 3" d="M272.789-161.929c-.348,2.066-.434,2.515-1.389,2.515s-6.857-1.976-14.147-8.711c-.087.808-.868.988-1.476.988H244.668a2.2,2.2,0,0,1,.174.808c0,.718-.434,1.077-1.823,1.975v15.445h9.113l4.774-6.105a1.525,1.525,0,0,1,1.388-.808,2.656,2.656,0,0,1,1.563.808l5.641,5.3a2.17,2.17,0,0,1,.868,1.707c0,.9-.781,1.166-1.475,1.166H243.019v21.373h17.445l4.948-6.644a1.866,1.866,0,0,1,1.475-.9,2.423,2.423,0,0,1,1.562.808l6.683,5.926a2.031,2.031,0,0,1,.781,1.616c0,.9-.781,1.168-1.475,1.168H200.057l-1.041-1.976h32.373v-21.373H207.348l-1.042-2.065h25.083v-18.228H216.808a62.771,62.771,0,0,1-20.657,9.249l-.347-.808c20.05-10.6,29.683-33.943,33.5-44.45l14.928,3.682c.782.179,2.083.9,2.083,1.885,0,1.167-.781,1.8-2.17,2.6,8.506,16.164,25.431,21.283,34.63,23.887v.987C274.438-168.394,273.049-163.814,272.789-161.929Zm-31.072-32.237h-.867c-8.159,11.584-13.8,19.037-21.351,25.054h25l3.384-5.477a1.647,1.647,0,0,1,1.389-.9,2.892,2.892,0,0,1,1.649.808l1.215,1.078C245.883-181.325,242.933-190.125,241.717-194.166Z" transform="translate(-107.618 204.332)" fill="#fff"/>
      <path id="パス_4" data-name="パス 4" d="M367.4-131.047c-4.426,1.167-5.034,3.951-6.162,8.891-.174.718-.608,1.256-1.3,1.256-1.476,0-7.2-6.465-11.891-15.265-2.517,2.873-9.547,10.686-24.562,15.894l-.347-.9a62.976,62.976,0,0,0,21.524-22.539,84.564,84.564,0,0,1-5.468-29.724h-1.648v8.981c0,9.339-4.514,33.314-20.483,44.09l-.608-.628c3.992-4.58,7.291-12.482,8.506-21.283.868-6.375,1.648-14.008,1.648-16.882v-16.253H301.7v14.188h5.295l2.69-3.592a2.116,2.116,0,0,1,1.823-.988,3.913,3.913,0,0,1,2.17.9l6.6,5.3a1.625,1.625,0,0,1,.521,1.168c0,.987-1.736,2.693-2.951,3.951v29.543c0,1.975-4.079,4.13-6.944,4.13-1.3,0-3.471-.269-3.471-2.155v-36.279H301.7c0,13.47-5.9,30.532-13.973,39.063l-.781-.539a58.165,58.165,0,0,0,3.472-17.241c.173-2.155.954-16.163.954-17.151v-46.156l11.457.987c.607.09,1.475.36,1.475,1.348,0,1.077-.694,1.526-2.6,2.6v18.948h6.076V-201.9l11.717,1.527c.347.089,1.388.179,1.388,1.257s-.867,1.436-2.777,2.245v18.5l2.083-3.771a1.621,1.621,0,0,1,1.476-.809,3.7,3.7,0,0,1,1.475.629l3.471,3.232V-202.8l10.763,5.478h16.577l3.732-4.67c.434-.538.7-.9,1.389-.9.521,0,.607.09,1.476.719l6.075,4.13a1.729,1.729,0,0,1,.954,1.616c0,.9-.867,1.168-1.562,1.168H337.542V-175.5H352.73l3.906-4.31a2.131,2.131,0,0,1,1.822-.988,3.127,3.127,0,0,1,1.823.809l6.51,6.285a1.937,1.937,0,0,1,.694,1.526c0,.539-1.389,1.8-2.951,3.233-4.166,15.445-7.985,21.732-10.155,25.234a53.205,53.205,0,0,0,13.366,11.763Zm-26.3-42.385a59.667,59.667,0,0,0,7.378,21.552c1.388-3.592,3.731-9.519,4.86-21.552Z" transform="translate(-106.829 204.341)" fill="#fff"/>
      <path id="パス_5" data-name="パス 5" d="M441.259-172.625c.911-1.466,5.365-8.589,5.365-9.531,0-.1-.1-.733-1.012-.733-4.353,0-41.2,8.064-47.678,10.473-.911.315-5.365,2.933-6.478,2.933-3.644,0-11.135-11.416-11.135-16.548,0-.628.2-.943.708-.943.608,0,3.138,2.3,3.746,2.723a10.183,10.183,0,0,0,7.187,2.409c2.227,0,52.132-7.226,55.776-8.483.809-.315,4.15-2.933,4.96-2.933,4.049,0,12.147,11.835,12.147,14.558,0,2.094-1.619,2.094-4.657,2.2-1.113,0-1.518.106-4.048,2.41C436.7-155.973,435.186-154.611,428.809-150c3.34,4.189,6.377,10.055,6.377,15.291,0,6.284-4.353,7.331-6.377,7.331a4.649,4.649,0,0,1-3.847-1.781c-.911-1.152-2.835-8.274-3.341-9.845-3.745-10.683-10.325-20.318-20.448-24.612a37.705,37.705,0,0,1,24.8,10.473C433.566-161.734,437.109-166.027,441.259-172.625Z" transform="translate(-106.412 204.674)" fill="#fff"/>
      <path id="パス_6" data-name="パス 6" d="M477.6-133.2c10.527-9.95,16.8-18.014,21.358-27.964,2.329-5.027,6.378-14.872,6.378-18.433,0-3.038-2.531-5.551-3.746-6.389-.3-.209-1.113-.733-1.113-1.256,0-.734,2.632-.734,3.746-.734,3.947,0,6.377.838,11.539,6.18,1.012,1.047,3.442,3.665,3.442,5.026,0,.944-.506,1.153-1.721,1.885-1.721.943-2.429,2.41-4.049,5.865-6.782,15.291-15.488,28.278-35.834,36.447Zm91.509-12.987c0,1.885,0,8.379-5.466,8.379-4.96,0-5.771-4.4-6.276-6.808-4.151-20.318-7.492-28.278-23.991-43.988C553.32-182.318,569.112-160.533,569.112-146.184Z" transform="translate(-105.968 204.836)" fill="#fff"/>
      <path id="パス_7" data-name="パス 7" d="M602.015-165.6c6.377,0,37.555-1.885,44.641-2.2.91,0,5.162-1.362,6.175-1.362,3.036,0,10.325,5.027,10.325,9.007,0,1.572-1.721,2.829-3.846,2.829-1.215,0-3.543-.315-5.265-.524a135.3,135.3,0,0,0-16.8-1.572c-3.644,0-29.558,1.99-32.8,2.514-1.113.1-6.276,1.884-7.591,1.884s-10.326-3.141-11.035-17.176C588.855-169.165,592.3-165.6,602.015-165.6Z" transform="translate(-105.522 205.404)" fill="#fff"/>
      <path id="パス_8" data-name="パス 8" d="M672.977-131.187c17.005-13.3,27.229-42,27.229-47.444,0-1.675-.4-3.457-3.847-6.6-.2-.21-.708-.629-.708-1.152s2.126-.734,3.341-.734c4.049,0,5.668.943,8.807,3.56.3.21,6.478,5.237,6.478,7.646,0,1.152-1.214,1.781-2.429,2.409-.81.525-2.328,4.608-2.734,5.342-10.426,19.9-18.018,30.058-35.53,37.809Zm92.116-14.035c0,5.656-3.847,8.17-6.175,8.17-4.758,0-5.669-5.551-6.681-11.835-1.924-11.206-7.289-23.25-23.181-38.75C747.378-183.555,765.093-159.152,765.093-145.222Zm-1.923-38.122a3.671,3.671,0,0,1-3.239,3.561c-2.329,0-3.746-2.619-4.758-4.4-4.353-7.959-8.4-10.055-10.731-11.206C753.654-195.808,763.17-190.362,763.17-183.345Zm-7.188-20.947c8.6,0,16.4,5.552,16.4,10.474,0,1.467-1.012,3.771-3.138,3.771-1.518,0-2.328-.944-3.441-2.514-3.443-4.923-5.467-7.436-13.97-11.312A24.3,24.3,0,0,1,755.982-204.292Z" transform="translate(-105.073 204.292)" fill="#fff"/>
      <path id="パス_9" data-name="パス 9" d="M797.591-165.6c6.377,0,37.555-1.885,44.641-2.2.911,0,5.163-1.362,6.175-1.362,3.036,0,10.325,5.027,10.325,9.007,0,1.572-1.721,2.829-3.846,2.829-1.215,0-3.543-.315-5.265-.524a135.3,135.3,0,0,0-16.8-1.572c-3.644,0-29.558,1.99-32.8,2.514-1.114.1-6.277,1.884-7.592,1.884S782.1-158.168,781.4-172.2C784.432-169.165,787.873-165.6,797.591-165.6Z" transform="translate(-104.664 205.404)" fill="#fff"/>
      <path id="パス_10" data-name="パス 10" d="M884.648-120.918c8.2-3.246,19.943-9.53,27.636-21.365a91.137,91.137,0,0,0,11.945-28.069c0-.313-.1-.628-.608-.628-.708,0-27.229,3.038-35.126,7.331-3.036,1.572-3.34,1.781-4.149,1.781-1.924,0-11.237-5.97-11.237-12.882,0-.628,0-1.572.81-1.572a3.176,3.176,0,0,1,1.113.839c1.215,1.047,3.341,3.037,8.605,3.037,7.187,0,39.58-4.085,40.895-4.713.608-.315,2.632-2.409,3.138-2.723a2.917,2.917,0,0,1,1.924-.734c3.037,0,10.629,7.017,10.629,9.846,0,1.884-1.317,2.513-3.543,3.77-1.924.943-2.532,2.094-3.341,3.979-12.755,32.258-30.469,41.37-48.691,43.151Zm2.33-73.627a16.776,16.776,0,0,0,5.871,1.257c5.971,0,22.573-.838,25.205-2.932.3-.21,1.518-1.362,1.822-1.676a2,2,0,0,1,1.417-.524c2.53,0,10.021,2.828,10.021,7.121,0,2.932-2.834,3.038-8.2,3.247-2.024,0-25,2.933-26.927,3.561a23,23,0,0,1-2.53.733c-2.328,0-11.641-6.6-11.641-12.462,0-.106,0-.629.1-.734C882.32-197.164,886.167-194.86,886.978-194.545Z" transform="translate(-103.94 204.495)" fill="#fff"/>
      <path id="パス_11" data-name="パス 11" d="M954.6-123.043c23.485-7.541,34.72-23.356,39.478-30.373a43.328,43.328,0,0,0-13.564-13.091c-6.377,6.7-14.678,11-23.283,14.034l-.4-.838c14.476-9.74,28.242-34.039,28.242-40.531a8.369,8.369,0,0,0-.911-2.829c-.2-.419-1.822-2.409-1.822-2.828,0-.943.81-1.047,1.417-1.047,5.265,0,8.706,3.77,10.528,5.76,1.012,1.153,3.847,4.4,3.847,5.971,0,.418-.1.733-1.215,1.361-.405.315-2.024,1.153-2.227,1.362.81.1,4.859.209,5.668.209,1.317,0,6.479-.837,7.592-1.571,3.949-2.828,4.353-3.142,5.669-3.142,2.025,0,4.454,2.619,5.973,4.19s4.352,4.5,4.352,5.97c0,.943-.405,1.362-4.048,3.666-1.823,1.256-2.025,1.675-3.443,5.445a78.238,78.238,0,0,1-9.414,17.805c1.924,2.932,3.543,7.436,3.543,9.845,0,1.048-.809,5.551-4.251,5.551-3.847,0-5.061-2.3-6.985-5.865-8.4,9.321-24.092,21.262-44.742,21.784Zm53.043-56.347c0-.629-.3-.838-.81-.838-1.417,0-7.795,1.153-9.312,1.153-1.823,0-3.543-1.257-5.669-2.829a116.3,116.3,0,0,1-9.82,13.72c5.365.943,12.148,4.189,16.906,7.227C1003.492-168.917,1007.643-177.819,1007.643-179.39Z" transform="translate(-103.94 204.422)" fill="#fff"/>
    </g>
    <g id="世界最長の叙事詩をピーター_ブルック以来の全編舞台化" data-name="世界最長の叙事詩をピーター・ブルック以来の全編舞台化" transform="translate(1.74 0)">
      <path id="パス_12" data-name="パス 12" d="M141.912-246.156h-4.79v12.108c0,1.863-2.917,2.161-3.241,2.161-1.224,0-1.224-.745-1.224-1.229v-1.528h-4.5v3.353c0,1.342-2.448,1.863-3.421,1.863-.9,0-1.26-.56-1.26-1.379v-15.35h-4.285v18.7h16.349l2.052-2.534c.181-.222.252-.372.577-.372a1.009,1.009,0,0,1,.647.335l2.414,2.2a1.15,1.15,0,0,1,.359.67c0,.372-.323.523-.648.523h-21.75v1.117c0,1.341-3.277,1.788-3.673,1.788-1.009,0-1.009-.782-1.009-1.713v-20.716H109.79l-.432-.858h5.149v-10.022l5.042.559c.288.037.684.112.684.484,0,.559-.612.819-1.044,1.006v7.973h4.285v-10.1l4.79.6c.54.074.864.261.864.67,0,.6-.649.708-.973.745v8.085h4.5v-9.947l4.681.633c.288.037.865.223.865.67,0,.6-.793.819-1.081.894v7.378l1.621-1.9c.216-.261.288-.372.576-.372.252,0,.36.112.648.335l2.233,1.974a.761.761,0,0,1,.324.671C142.524-246.305,142.236-246.156,141.912-246.156Zm-9.255,0h-4.5V-235.5h4.5Z" transform="translate(-109.358 258.638)" fill="#fff"/>
      <path id="パス_13" data-name="パス 13" d="M178.034-231.755c-.072.559-.072.6-.144.6a15.242,15.242,0,0,1-6.77-3.763v9.351c0,1.528-2.124,1.939-3.385,1.939-1.116,0-1.224-.336-1.224-.895v-13.45l1.837.186a18.35,18.35,0,0,1-3.061-5.067H164.1a17.736,17.736,0,0,1-4.177,4.992l1.909.335c.359.074.756.223.756.67,0,.485-.145.522-1.225,1.044-.288,3.2-1.044,10.023-11.163,12.369l-.18-.372c5.8-3.13,6.194-7.712,6.482-11.475a21.8,21.8,0,0,1-9,3.614l-.144-.372a21.4,21.4,0,0,0,10.263-10.8h-1.548v.633c0,1.378-3.781,1.676-3.889,1.676-.4,0-.937-.149-.937-1.006v-16.133l5.078,2.2H172.2l1.152-1.415a1.2,1.2,0,0,1,1.044-.56,1.725,1.725,0,0,1,.9.374l2.521,1.9a1,1,0,0,1,.5.858c0,.708-.54,1.08-1.188,1.49v9.65c0,1.49-2.448,2.421-3.637,2.421-1.116,0-1.116-.6-1.116-1.266v-.819h-5.474c1.584,2.16,6.158,5.813,13.54,6.632v.372A5.252,5.252,0,0,0,178.034-231.755Zm-16.169-22.914h-5.8v4.881h5.8Zm0,5.738h-5.8v5.1h5.8Zm10.516-5.738h-5.222c-.036.484-.144.709-.828.858v4.024h6.05Zm0,5.738h-6.05v5.1h6.05Z" transform="translate(-109.358 258.618)" fill="#fff"/>
      <path id="パス_14" data-name="パス 14" d="M218.01-242H203.39c0,.372-.072.745-.828,1.081v2.049h8.966l1.08-1.416a1.178,1.178,0,0,1,1.081-.484,1.452,1.452,0,0,1,1.008.411l2.413,2.384a.983.983,0,0,1,.324.634c0,.371-.36.52-1.548,1.006a36.647,36.647,0,0,1-3.6,5.923,18.485,18.485,0,0,0,6.2,1.826l.107.335A5.252,5.252,0,0,0,216.1-224.6c-.037.3-.073.633-.361.633a1.35,1.35,0,0,1-.54-.186,18.172,18.172,0,0,1-5.653-3.391,15.432,15.432,0,0,1-7.959,3.353,4.157,4.157,0,0,1-2.16.67c-1.189,0-1.189-.633-1.189-1.341v-5.067c-1.3.708-7.814,3.8-9.219,4.582-.144.633-.251.968-.612.968-.216,0-.4-.112-.576-.6l-1.62-4.732c1.188-.149,2.845-.335,3.493-.41V-242h-3.6l-.432-.819h27.476l1.657-2.422a.686.686,0,0,1,.576-.372c.252,0,.4.149.648.372l2.269,2.05a1.028,1.028,0,0,1,.36.67C218.658-242.114,218.334-242,218.01-242Zm-4.141-11.363v6.781c0,.6,0,.894-.9,1.415a5.211,5.211,0,0,1-2.377.708c-.792,0-1.26-.41-1.26-1.043v-.708h-13.9v.67c0,.894-2.161,1.788-3.566,1.788-.972,0-1.008-.782-1.008-1.266v-12.63l4.789,1.862H209.26l1.116-1.491a.955.955,0,0,1,.792-.371,1.311,1.311,0,0,1,.792.3l2.593,1.937a.755.755,0,0,1,.36.633C214.913-254.371,214.8-254.26,213.869-253.366ZM198.24-242h-3.1c.071.6-.5.931-.973,1.155v2.05h4.069Zm0,4.024h-4.069v3.2h4.069Zm0,4.024h-4.069v3.316c1.476-.186,2.593-.3,4.069-.484Zm11.092-20.975h-13.9v3.5h13.9Zm0,4.321h-13.9v3.541h13.9Zm-5.618,12.556h-1.152v12.333a20,20,0,0,0,4.861-3.875C205.082-232.129,204.29-234.327,203.714-238.053Zm1.3,0a11.752,11.752,0,0,0,4.285,5.775,20.892,20.892,0,0,0,2.2-5.775Z" transform="translate(-109.358 258.619)" fill="#fff"/>
      <path id="パス_15" data-name="パス 15" d="M253.629-224.754c-.288,1.155-.324,1.266-.793,1.266a18.731,18.731,0,0,1-4.357-1.378,16.111,16.111,0,0,1-6.518-4.881c-5.69,2.795-9,4.211-13.756,6.185-.432.67-.576.895-.936.895-.216,0-.468-.3-.5-.448l-1.873-5.663c1.945,0,3.205-.037,5.114-.186v-9.65h-5.942l-.432-.857h6.374v-17.884l4.861,2.422h11.739l2.2-2.31a.734.734,0,0,1,.576-.336,1.24,1.24,0,0,1,.684.336l2.557,2.011a.978.978,0,0,1,.324.633.546.546,0,0,1-.612.522H234.579v4.284h11.055l1.837-2.422a.728.728,0,0,1,.576-.335,1.056,1.056,0,0,1,.648.3l2.377,2.161a.763.763,0,0,1,.324.633c0,.372-.324.484-.612.484H234.579v4.284h11.379l1.765-2.348a.789.789,0,0,1,.576-.334,1.092,1.092,0,0,1,.684.334l2.341,2.05a.787.787,0,0,1,.324.633c0,.372-.288.521-.612.521H234.579v4.36h15.736l1.945-2.459a.8.8,0,0,1,.613-.335,1.006,1.006,0,0,1,.648.335l2.521,2.161a.785.785,0,0,1,.323.67c0,.372-.36.484-.612.484h-6.445l3.672,2.5c.252.149.325.3.325.447,0,.6-.613.6-.9.6a4.137,4.137,0,0,1-.9-.074c-.288.186-.54.335-2.881,1.713-.9.522-2.376,1.267-3.565,1.9a25.857,25.857,0,0,0,11.631,3.465v.372A4.35,4.35,0,0,0,253.629-224.754Zm-16.241-13.86h-2.809v9.129c3.313-.3,3.673-.335,6.986-.745A26.981,26.981,0,0,1,237.388-238.614Zm1.3,0a16.27,16.27,0,0,0,5.438,6.446,24.973,24.973,0,0,0,2.989-6.446Z" transform="translate(-109.358 258.622)" fill="#fff"/>
      <path id="パス_16" data-name="パス 16" d="M276.535-227.7c2.485-.447,11.6-2.981,11.6-14.009,0-8.719-7.382-9.911-9.831-9.911a10.428,10.428,0,0,0-1.512.113,3.741,3.741,0,0,1,1.152,2.756c0,1.938-1.476,11.513-7.274,17.735-1.008,1.081-2.053,2.2-3.169,2.2a1.877,1.877,0,0,1-1.836-1.9c-.181-1.341-.252-1.825-.793-2.422-1.368-1.415-1.944-2.049-1.944-4.769a15.631,15.631,0,0,1,15.881-15.2c9.038,0,13.431,6.409,13.431,13.3,0,12.22-13.611,12.445-14.08,12.445a9.768,9.768,0,0,1-1.62-.113Zm-10.011-11.1c0,.261.072,4.4,1.548,4.4,2.665,0,7.707-10.172,7.707-15.089a8.857,8.857,0,0,0-.217-1.751C269.549-249.611,266.524-243.537,266.524-238.806Z" transform="translate(-108.717 258.777)" fill="#fff"/>
      <path id="パス_17" data-name="パス 17" d="M316.007-239.668h-5.114v12.445c0,1.49-.18,3.687-4.033,3.687-.648,0-1.081-.037-1.081-.559a3.831,3.831,0,0,0-.179-1.751c-.469-1.08-2.845-1.491-4.358-1.752l.072-.372c1.369.149,3.025.186,3.565.186,1.009,0,1.693,0,1.693-1.6v-6.707c-.252.6-1.081.819-1.549.894a22.354,22.354,0,0,1-6.734,8.272l-.216-.3c1.729-2.758,2.593-6.633,2.917-11.029l5.077,1.565c.325.111.433.186.505.335v-3.316h-7.85l-.433-.82h8.283v-5.4h-2.7a30.023,30.023,0,0,1-5.906,4.843l-.252-.3c3.2-3.316,5.51-8.271,6.842-15.909l6.014,1.49a.572.572,0,0,1,.468.6.924.924,0,0,1-.576.857c2.989.187,5.546,1.565,5.546,4.284a1.984,1.984,0,0,1-1.981,2.161,1.913,1.913,0,0,1-2.125-1.825c-.288-1.454-.792-2.385-2.773-3.875a26.977,26.977,0,0,1-4.5,6.856h5.4l1.26-1.416c.18-.223.288-.372.576-.372.144,0,.217,0,.685.335l1.656,1.155a.733.733,0,0,1,.324.634c0,.372-.324.484-.612.484h-2.053a2.452,2.452,0,0,1,.109.447c0,.67-.649.894-1.081,1.043v3.912h.972l1.116-1.713a.666.666,0,0,1,.577-.372c.144,0,.216,0,.684.335l2.053,1.453a.739.739,0,0,1,.324.633C316.619-239.78,316.259-239.668,316.007-239.668Zm-1.189,9.427c-1.548,0-1.62-1.007-1.8-3.5a8.336,8.336,0,0,0-1.837-3.986l.252-.335c1.729.521,5.69,1.677,5.69,5.179A2.394,2.394,0,0,1,314.818-230.242ZM331.6-227.9a4.534,4.534,0,0,0-3.349,3.242c-.108.559-.252.708-.54.708-1.044,0-4.789-4.1-6.05-6.856a38.7,38.7,0,0,1-10.155,6.669l-.18-.335a38.321,38.321,0,0,0,8.895-8.831c-2.377-5.476-2.845-9.91-2.737-19.448h-1.909l-.431-.819h9.686l1.189-1.193a1.566,1.566,0,0,1,1.08-.633,1.929,1.929,0,0,1,1.188.6l2.269,1.863a1.115,1.115,0,0,1,.5.857c0,.484-.144.6-1.224,1.6-.576,4.88-1.657,11.587-5.474,16.692a18.354,18.354,0,0,0,7.274,5.514Zm-12.856-24.851c-.035,8.159,2.053,13.823,3.529,15.8,2.089-4.956,2.593-10.4,2.665-15.8Z" transform="translate(-108.567 258.633)" fill="#fff"/>
      <path id="パス_18" data-name="パス 18" d="M368.91-236.01H364.8v4.472c0,1.64-2.3,2.086-3.529,2.086-.9,0-.9-.483-.9-1.006v-1.229h-5.114v5.328c0,1.08,0,2.98-4.393,2.98-1.62,0-1.62-.112-1.873-1.713a2.37,2.37,0,0,0-1.98-1.975c-2.089-.521-2.341-.633-2.629-.708v-.372c.648.037,3.637.223,4.717.223,1.261,0,1.513,0,1.513-.931v-2.832H339.742l-.432-.857h11.307v-3.466H336.861l-.432-.819h14.188v-3.316H340.21l-.433-.819h10.84v-2.719h-4.97c0,.67,0,1.006-.648,1.415a4.212,4.212,0,0,1-2.7.633c-1.008,0-1.008-.335-1.008-.894v-8.384l4.321,1.342h5.006v-2.5h-13.18l-.432-.819h13.612v-4.583l4.862.374c.576.037.755.222.755.6,0,.335-.071.41-.972.968v2.646h6.7l1.945-2.422c.18-.223.288-.372.612-.372.252,0,.4.149.648.335l2.7,2.124a.979.979,0,0,1,.36.67c0,.372-.324.484-.648.484H355.262v2.5h4.573l1.513-1.454a1.355,1.355,0,0,1,.72-.372,1.066,1.066,0,0,1,.648.3l2.449,1.937a.705.705,0,0,1,.252.6c0,.41-.108.484-1.152,1.3v3.168c0,.6,0,.894-.828,1.192l2.34,1.9c.073.076.325.3.325.521,0,.335-.433.671-1.3,1.454v2.2l1.368-2.272a.712.712,0,0,1,.577-.335.928.928,0,0,1,.648.335l1.8,1.937a.989.989,0,0,1,.324.671C369.522-236.121,369.2-236.01,368.91-236.01Zm-18.293-12.742h-4.97v4.248h4.97Zm9.255,0h-4.61v4.248h4.61Zm.648,6.334c-.648,0-.648-.41-.648-1.266h-4.61v2.719h5.006l1.332-1.6A9.778,9.778,0,0,1,360.52-242.418Zm-.144,2.272h-5.114v3.316h5.114Zm0,4.135h-5.114v3.466h5.114Z" transform="translate(-108.406 258.626)" fill="#fff"/>
      <path id="パス_19" data-name="パス 19" d="M388.4-249.718h-13.5l-.432-.858h8.679l1.62-2.049c.18-.223.288-.372.576-.372.18,0,.324.112.685.372l2.664,1.751a.858.858,0,0,1,.324.671C389.008-249.867,388.648-249.718,388.4-249.718Zm18.582,10.209h-4.394v12.444a3.03,3.03,0,0,1-.864,2.385,5.233,5.233,0,0,1-3.457,1.229c-1.261,0-1.261-.223-1.261-.67,0-1.527,0-2.05-.648-2.608-.468-.372-.54-.41-3.961-1.266l.072-.41c.792.074,1.909.074,2.7.074,1.08,0,2.521.186,2.521-1.192v-9.985H385.623l-.432-.819h12.5v-5.179H375.864l-.432-.857h6.878l1.477-1.938a.744.744,0,0,1,.612-.335,1.218,1.218,0,0,1,.648.335l2.233,1.677a.5.5,0,0,1,.216.261h6.193v-5.664h-5.8l-.432-.819h6.229v-4.694l5.114.484c.468.037.792.112.792.633,0,.633-.684.857-1.26,1.006v2.571h2.52l1.549-1.863c.18-.222.288-.372.576-.372.216,0,.216.037.648.335l2.305,1.6a1.052,1.052,0,0,1,.324.633c0,.372-.324.484-.612.484h-7.31v5.664h3.673l1.657-2.087a.712.712,0,0,1,.576-.372c.252,0,.4.149.612.335l2.232,1.789a.783.783,0,0,1,.325.708c0,.372-.325.484-.613.484h-3.349c0,.67-.252.857-.864,1.229v3.95h.108l1.4-1.789c.18-.223.288-.372.576-.372.216,0,.324.075.648.335l1.945,1.528a.8.8,0,0,1,.324.632C407.59-239.621,407.3-239.509,406.978-239.509Zm-20.311-1.714h-10.7l-.432-.857h6.626l1.44-1.713a.728.728,0,0,1,.577-.336c.18,0,.216,0,.648.3l2.125,1.491a.828.828,0,0,1,.324.6A.547.547,0,0,1,386.667-241.224Zm-.5-12.78H376.08l-.432-.819h5.8l1.584-2.011c.18-.223.288-.372.576-.372.181,0,.325.074.649.334l2.2,1.714a.937.937,0,0,1,.324.67C386.775-254.114,386.451-254,386.163-254Zm.721,19.263v7.154c0,.745,0,1.117-1.369,1.677a4.055,4.055,0,0,1-1.765.334c-.864,0-.9-.446-.9-.781v-1.267h-2.7v2.049c0,.6-.036.895-.972,1.379a6.538,6.538,0,0,1-2.268.6c-.613,0-.937-.261-.937-1.341v-14.679l4.214,2.123h2.556l1.116-1.49a.943.943,0,0,1,.793-.335.947.947,0,0,1,.612.261l2.125,1.751a1.459,1.459,0,0,1,.468,1.006C387.856-235.933,387.748-235.709,386.884-234.741Zm-4.033-1.9h-2.7v8.159h2.7Zm10.226,6.259c-1.584,0-1.656-.745-1.8-2.533a5.8,5.8,0,0,0-3.133-4.7l.144-.372c4.861-.372,7.742,2.012,7.742,4.955C396.03-230.456,393.33-230.382,393.077-230.382Z" transform="translate(-108.246 258.623)" fill="#fff"/>
      <path id="パス_20" data-name="パス 20" d="M430.424-242.941a5.608,5.608,0,0,0-1.332,3.352c.72-.3,3.889-1.564,4.537-1.862.144-.037,1.152-.484,1.152-1.192a1.137,1.137,0,0,0-.468-.82c-.144-.112-.288-.222-.288-.334,0-.225.432-.262.612-.262,2.053,0,4.394,1.9,4.394,4.025,0,.968-1.009.968-1.369.968a19.152,19.152,0,0,0-8.642,1.6c0,.447-.037,1.081,0,2.087.036.484.18,2.683.18,3.13a2.067,2.067,0,0,1-1.693,2.2,2.325,2.325,0,0,1-1.981-2.347c0-.559.325-3.055.361-3.577-3.493,1.9-4.934,3.391-4.934,5.067,0,2.571,2.629,3.167,5.294,3.167,1.62,0,1.944-.112,6.374-.968a3.544,3.544,0,0,1,.828-.075c1.153,0,2.7.931,2.7,1.975a1.824,1.824,0,0,1-.972,1.527c-1.261.6-5.546.745-7.023.745-6.446,0-8.714-2.72-8.714-5.217,0-2.943,1.692-5.514,6.446-8.2-.144-1.788-.576-3.912-2.629-3.912-3.025,0-4.969,4.77-5.51,6.148-.288.745-.576,1.527-1.512,1.527-.972,0-1.621-.708-1.621-2.272,0-2.05.613-2.571,1.3-3.167,1.512-1.3,2.484-3.093,4.285-6.744a19.7,19.7,0,0,1-2.233.149,4.225,4.225,0,0,1-4.357-2.981c0-.074.036-.223.144-.223s.5.372.612.41a4.758,4.758,0,0,0,2.665.67,20.978,20.978,0,0,0,4.465-.894c.361-.745,1.837-4.322,1.837-5.664A1.683,1.683,0,0,0,422-256.577c-.217-.037-.325-.075-.325-.261,0-.448,1.009-.6,1.477-.6,2.088,0,4.429,2.161,4.429,3.392,0,.521-.252.708-.792,1.192-.468.372-.684.782-1.549,2.31a11.045,11.045,0,0,0,3.422-1.863,2.3,2.3,0,0,1,1.224-.3c1.152,0,2.629.782,2.629,1.752,0,.484-.288.894-1.189,1.341a36.643,36.643,0,0,1-8.03,2.756c-.324.671-1.981,3.727-2.2,4.36a7.955,7.955,0,0,1,3.781-1.565c1.189,0,2.017.633,3.565,2.683.217-.149,1.117-1.08,1.333-1.266a2.105,2.105,0,0,1,.576-.372Z" transform="translate(-108.093 258.627)" fill="#fff"/>
      <path id="パス_21" data-name="パス 21" d="M463.2-247.993a1.832,1.832,0,0,0,.576-1.192c0-.3-.072-.41-.576-.931-.324-.335-.36-.374-.36-.484,0-.187.216-.223.324-.223,3.241,0,5.546,3.577,5.546,4.471,0,.521-.721.6-1.333.67a4.38,4.38,0,0,0-.756.261c-10.155,4.62-10.407,4.732-14.62,5.44-.037,1.341-.145,6.744.54,7.787,1.044,1.527,2.448,1.6,4.177,1.6a36.257,36.257,0,0,0,8.823-1.3,3.456,3.456,0,0,1,1.692-.335c.612,0,3.349.708,3.349,2.385,0,.372,0,.745-1.872,1.527-1.873.819-5.69.857-7.131.857-5.545,0-9.327-.41-11.055-2.05-1.585-1.527-1.585-5.774-1.585-9.2,0-.894.073-4.919.073-5.738,0-1.713,0-7-.937-8.047a4.853,4.853,0,0,0-1.692-1.229.246.246,0,0,1-.144-.187c0-.26.9-.559,1.764-.559,2.773,0,5.474,1.975,5.474,3.13a2.131,2.131,0,0,1-.36,1.044c-.72,1.49-1.009,7.078-1.08,9.016C459.165-244.154,461.289-245.794,463.2-247.993Zm11.127-4.545a3.034,3.034,0,0,1-2.989,3.093,3.1,3.1,0,0,1-3.1-3.093,3.225,3.225,0,0,1,3.241-3.2A3.062,3.062,0,0,1,474.325-252.538Zm-5.293,0a2.279,2.279,0,0,0,2.3,2.236,2.183,2.183,0,0,0,2.161-2.236,2.234,2.234,0,0,0-2.017-2.348A2.4,2.4,0,0,0,469.032-252.538Z" transform="translate(-107.953 258.686)" fill="#fff"/>
      <path id="パス_22" data-name="パス 22" d="M483.908-241.979c2.268,0,13.36-.67,15.881-.782.323,0,1.836-.484,2.2-.484,1.08,0,3.673,1.788,3.673,3.2,0,.56-.612,1.007-1.368,1.007-.433,0-1.261-.112-1.873-.186a48.183,48.183,0,0,0-5.978-.559c-1.3,0-10.515.708-11.667.894-.4.037-2.233.67-2.7.67s-3.673-1.117-3.925-6.111A6.871,6.871,0,0,0,483.908-241.979Z" transform="translate(-107.821 259.081)" fill="#fff"/>
      <path id="パス_23" data-name="パス 23" d="M510.379-226.839a26.153,26.153,0,0,0,14.044-10.8A15.413,15.413,0,0,0,519.6-242.3a20.714,20.714,0,0,1-8.283,4.992l-.144-.3c5.15-3.465,10.047-12.108,10.047-14.419a2.975,2.975,0,0,0-.324-1.006,7.894,7.894,0,0,1-.648-1.006c0-.336.288-.374.5-.374a5.176,5.176,0,0,1,3.745,2.05c.36.41,1.368,1.564,1.368,2.124,0,.149-.035.261-.431.484-.145.112-.721.41-.793.484.288.037,1.729.075,2.017.075a9.439,9.439,0,0,0,2.7-.559c1.4-1.006,1.549-1.117,2.017-1.117.72,0,1.585.931,2.125,1.49s1.548,1.6,1.548,2.123c0,.336-.144.485-1.44,1.3-.648.447-.72.6-1.225,1.938a27.84,27.84,0,0,1-3.349,6.333,8,8,0,0,1,1.261,3.5c0,.371-.288,1.974-1.513,1.974-1.368,0-1.8-.819-2.484-2.087-2.989,3.316-8.571,7.564-15.917,7.749Zm18.87-20.044c0-.225-.108-.3-.289-.3-.5,0-2.773.41-3.313.41a3.778,3.778,0,0,1-2.016-1.007,41.349,41.349,0,0,1-3.493,4.881,18.636,18.636,0,0,1,6.013,2.571C527.772-243.157,529.249-246.324,529.249-246.883Z" transform="translate(-107.692 258.732)" fill="#fff"/>
      <path id="パス_24" data-name="パス 24" d="M546.934-241.979c2.268,0,13.359-.67,15.88-.782.325,0,1.837-.484,2.2-.484,1.08,0,3.673,1.788,3.673,3.2,0,.56-.612,1.007-1.369,1.007-.431,0-1.26-.112-1.872-.186a48.165,48.165,0,0,0-5.978-.559c-1.3,0-10.515.708-11.667.894-.4.037-2.233.67-2.7.67s-3.673-1.117-3.925-6.111A6.869,6.869,0,0,0,546.934-241.979Z" transform="translate(-107.558 259.081)" fill="#fff"/>
      <path id="パス_25" data-name="パス 25" d="M583.2-240.857a3.558,3.558,0,0,1-3.493,3.615,3.536,3.536,0,0,1-3.493-3.615,3.559,3.559,0,0,1,3.493-3.614A3.559,3.559,0,0,1,583.2-240.857Z" transform="translate(-107.457 259.076)" fill="#fff"/>
      <path id="パス_26" data-name="パス 26" d="M594.437-225.911c6.158-2.459,11.2-6.707,14.188-14.977a34.632,34.632,0,0,0,1.729-6.968c0-.224-.109-.372-.541-.372a89.1,89.1,0,0,0-11.919,2.422,10.737,10.737,0,0,1-1.261.484,5.722,5.722,0,0,1-4.033-5.366c0-.484.036-.6.18-.6s.54.633.649.745a3.261,3.261,0,0,0,2.628,1.267c1.873,0,14.333-1.267,15.269-1.788.18-.113.828-.634.972-.709a1.3,1.3,0,0,1,.54-.149c1.152,0,3.817,3.018,3.817,3.614,0,.521-.143.6-1.476,1.416a3.181,3.181,0,0,0-1.189,2.011c-3.421,11.439-8.858,18.295-19.553,19.263Zm24.523-26.416c0,.819-.468,1.341-1.009,1.341-.756,0-1.187-.708-1.548-1.378a11.848,11.848,0,0,0-3.924-3.8C615.791-256.314,618.96-254.3,618.96-252.327Zm-2.809-6.26c1.836,0,5.906,1.155,5.906,3.428,0,.82-.4,1.23-1.117,1.23-.54,0-1.116-.67-1.368-1.044-1.26-1.6-1.476-1.9-4.573-3.5A5.049,5.049,0,0,1,616.151-258.587Z" transform="translate(-107.34 258.587)" fill="#fff"/>
      <path id="パス_27" data-name="パス 27" d="M625.267-227.231c6.914-5.216,7.994-12.183,7.994-17.586,0-1.266,0-4.024-.72-4.731-.217-.186-1.44-.782-1.44-1.043,0-.411,1.8-.523,2.051-.523,2.27,0,4.97,2.422,4.97,2.869,0,.261-.828,1.044-.864,1.23-.144.484-.5,4.806-.612,5.7a16.5,16.5,0,0,1-6.518,12.072,13.734,13.734,0,0,1-4.682,2.347ZM658-243.252c-2.953,6.706-9.867,11.14-11.6,12.183a3.184,3.184,0,0,0-1.259,1.156c-.613,1.08-.685,1.192-1.153,1.192-1.4,0-3.961-4.284-3.961-5.03a8.516,8.516,0,0,1,.5-1.341c.361-1.378.361-7.712.361-9.5a41.281,41.281,0,0,0-.253-6.148,2.456,2.456,0,0,0-1.08-1.49c-.18-.112-1.189-.521-1.189-.745,0-.521,1.045-.857,1.837-.857,2.053,0,5.33,2.086,5.33,3.167a8.293,8.293,0,0,1-.612,1.266c-.433,1.043-.829,7.154-.829,12,0,2.422,0,2.72.936,2.72,3.026,0,10.119-5.738,12.82-8.681Z" transform="translate(-107.195 258.752)" fill="#fff"/>
      <path id="パス_28" data-name="パス 28" d="M668.41-240.2a1.328,1.328,0,0,1-1.224,1.49,1.588,1.588,0,0,1-1.584-1.08,12.106,12.106,0,0,0-3.242-4.993C665.422-244.485,668.41-242.287,668.41-240.2Zm-2.016,14.121c10.3-4.21,13.288-15.574,13.288-18.667,0-.968-.145-1.155-1.3-2.533,4.286.223,5.474,3.13,5.474,3.428,0,.334-.18.447-.684.819-.216.149-.4.41-.721,1.6a25.434,25.434,0,0,1-4.933,9.762c-4.322,4.471-7.058,5.626-11.055,5.887Zm7.922-15.872c0,.932-.541,1.528-1.224,1.528a1.654,1.654,0,0,1-1.585-1.081,11.835,11.835,0,0,0-3.24-5.029C671.327-246.2,674.316-244,674.316-241.952Z" transform="translate(-107.069 258.979)" fill="#fff"/>
      <path id="パス_29" data-name="パス 29" d="M691.316-226.757c6.122-2.459,11.236-6.26,14.729-12.854a25.832,25.832,0,0,0,2.485-6.558c0-.223-.108-.3-.253-.3-.107,0-2.952.633-3.492.708a9.372,9.372,0,0,1-1.549.149,3.332,3.332,0,0,1-2.16-.857c-2.269,3.689-7.6,8.122-11.416,8.979l-.107-.26c7.166-5.068,9.9-13.711,9.9-14.867a1.594,1.594,0,0,0-.432-1.117c-.036-.037-.576-.56-.576-.6,0-.262.54-.262.684-.262,2.808,0,5.51,2.236,5.51,3.541,0,.41-.361.559-1.008.857-.721.3-.793.41-1.441,1.713a4.325,4.325,0,0,0,1.657.372,13.54,13.54,0,0,0,5.221-1.639c1.153-.894,1.3-.969,1.584-.969.685,0,1.549.82,2.917,2.161.973.969,1.117,1.081,1.117,1.528,0,.745-.4.931-1.693,1.49a8.1,8.1,0,0,0-.756,1.415c-6.158,13.3-13.252,16.99-20.886,17.735Z" transform="translate(-106.947 258.725)" fill="#fff"/>
      <path id="パス_30" data-name="パス 30" d="M725.026-228.491c-.143,1.006-.252,1.527-.828,1.527-.36,0-.576-.335-.756-.745l-2.3-5.7c1.548-.521,2.2-.745,3.169-1.155v-20.827l5.149.521a.709.709,0,0,1,.648.67c0,.225-.108.335-1.081,1.193V-236.5c4.539-1.975,8.967-4.062,13.361-6.334l.216.3C739.431-238.961,733.2-234.266,725.026-228.491Zm25.928,3.837c-2.232,0-2.52-2.348-2.593-3.093-.215-2.832-.288-3.316-1.44-4.545a14.261,14.261,0,0,1-3.241,3.54c-4.933,4.1-14.044,4.322-16.889,4.322v-.372c11.2-1.975,16.6-7,18.294-15.947.684-3.577.684-8.122.647-15.685l5.258.6a.872.872,0,0,1,.864.819c0,.521-.288.745-1.295,1.454.071,7.154.143,14.046-2.629,19.523,4.069,1.64,5.545,4.137,5.545,6.446C753.475-226.144,752.719-224.654,750.954-224.654Zm-12.891-21.461c-2.233,0-2.593-1.938-2.809-3.353-.576-3.5-1.152-6.111-4.609-7.34v-.374a9.848,9.848,0,0,1,1.295-.073c4.539,0,9.183,3.465,9.183,7.6C741.123-247.419,739.755-246.114,738.063-246.114Z" transform="translate(-106.794 258.633)" fill="#fff"/>
      <path id="パス_31" data-name="パス 31" d="M791.29-239.731H778.218c1.656,3.763,6.229,7.6,13.54,9.314v.372a4.8,4.8,0,0,0-3.1,3.875c-.181.895-.181,1.007-.4,1.007-1.08,0-8.21-4.433-10.7-12.594v12.594c0,1.713-2.917,1.938-3.169,1.938-1.223,0-1.44-.671-1.44-1.23v-10.581a29.671,29.671,0,0,1-14.4,9.8l-.18-.372a33.165,33.165,0,0,0,11.56-14.121h-10.8l-.432-.82h14.26v-10.916H760.933l-.432-.857H772.96v-5.254l5.33.448a.61.61,0,0,1,.648.633c0,.41-.108.633-1.369,1.266v2.906h6.591l1.908-2.309c.18-.225.288-.374.577-.374.251,0,.36.112.648.335l2.52,2.05a.906.906,0,0,1,.325.633c0,.372-.288.521-.613.521H777.569v10.916h.937a34.291,34.291,0,0,0,2.484-9.612l5.8,1.9c.324.112.576.3.576.67,0,.745-.54.745-1.475.745-.866.895-5.078,5.366-6.122,6.3h5.8l2.088-2.533c.181-.223.288-.336.577-.336.251,0,.36.113.648.336l2.737,2.235a.932.932,0,0,1,.288.6C791.9-239.881,791.65-239.731,791.29-239.731Zm-22.615-1.64a2.033,2.033,0,0,1-2.2-2.235c-.145-4.136-2.521-5.813-3.278-6.222l.109-.41c4.861,0,7.958,3.055,7.958,5.4C771.268-243.085,770.26-241.371,768.675-241.371Z" transform="translate(-106.635 258.622)" fill="#fff"/>
      <path id="パス_32" data-name="パス 32" d="M811.6-227.7c2.485-.447,11.595-2.981,11.595-14.009,0-8.719-7.382-9.911-9.831-9.911a10.459,10.459,0,0,0-1.513.113,3.739,3.739,0,0,1,1.153,2.756c0,1.938-1.477,11.513-7.274,17.735-1.008,1.081-2.052,2.2-3.169,2.2a1.877,1.877,0,0,1-1.836-1.9c-.18-1.341-.252-1.825-.792-2.422-1.369-1.415-1.945-2.049-1.945-4.769a15.63,15.63,0,0,1,15.88-15.2c9.039,0,13.433,6.409,13.433,13.3,0,12.22-13.613,12.445-14.08,12.445a9.773,9.773,0,0,1-1.621-.113Zm-10.011-11.1c0,.261.072,4.4,1.549,4.4,2.664,0,7.706-10.172,7.706-15.089a9.009,9.009,0,0,0-.216-1.751C804.617-249.611,801.593-243.537,801.593-238.806Z" transform="translate(-106.482 258.777)" fill="#fff"/>
      <path id="パス_33" data-name="パス 33" d="M864.615-240.62c-.143.857-.179,1.042-.576,1.042s-2.845-.819-5.869-3.613c-.036.335-.36.41-.612.41h-4.61a.915.915,0,0,1,.072.335c0,.3-.18.447-.756.819v6.409h3.781l1.98-2.534a.635.635,0,0,1,.577-.335,1.1,1.1,0,0,1,.648.335l2.341,2.2a.9.9,0,0,1,.36.708c0,.372-.324.484-.612.484h-9.075v8.868H859.5l2.053-2.757a.773.773,0,0,1,.612-.372,1,1,0,0,1,.647.335l2.774,2.459a.846.846,0,0,1,.324.67c0,.372-.324.484-.612.484H834.438l-.432-.819h13.432v-8.868h-9.975l-.432-.857h10.407v-7.563h-6.049a26.059,26.059,0,0,1-8.571,3.837l-.144-.335c8.318-4.4,12.315-14.084,13.9-18.443l6.194,1.528c.324.074.864.372.864.782,0,.485-.323.745-.9,1.081,3.529,6.706,10.551,8.83,14.369,9.91v.41A4.345,4.345,0,0,0,864.615-240.62ZM851.724-254h-.361c-3.384,4.807-5.725,7.9-8.858,10.4h10.371l1.4-2.273a.683.683,0,0,1,.576-.372,1.206,1.206,0,0,1,.685.335l.5.447A25.366,25.366,0,0,1,851.724-254Z" transform="translate(-106.32 258.617)" fill="#fff"/>
      <path id="パス_34" data-name="パス 34" d="M902.9-237.389v11.774c0,2.2-2.2,2.2-2.7,2.2-.935,0-1.008-.222-1.008-.745,0-1.826,0-1.975-.9-2.124,0,.41,0,.56-.252.783a2.879,2.879,0,0,1-1.8.633c-.648,0-.972-.112-.972-.894v-8.01H894.22v7.675c0,.559,0,.819-.324.968a4.586,4.586,0,0,1-1.837.521c-.9,0-.9-.484-.9-1.192v-7.973h-1.045v9.016c0,1.006-1.692,1.341-2.3,1.341-.756,0-1.008-.3-1.008-.819v-7.079a15.486,15.486,0,0,1-6.483,7.676l-.252-.336a15.58,15.58,0,0,0,3.566-6.519,1.962,1.962,0,0,1-1.621,1.042,1.484,1.484,0,0,1-1.405-1.564c0-.335.109-1.751.109-2.049a6.679,6.679,0,0,0-.721-3.243v11.4c0,.484,0,.559-.143.67a4.271,4.271,0,0,1-2.3.745c-1.3,0-1.3-.372-1.3-1.006v-10.544a3.007,3.007,0,0,1-.432.186,21.563,21.563,0,0,1-4.321,8.867l-.324-.222a48.853,48.853,0,0,0,.973-10.806l4.1,1.081v-2.534c-1.044.372-1.152.41-2.2.745-.144.634-.252.969-.685.969a.63.63,0,0,1-.611-.56l-1.225-4.88c.468,0,2.485.074,2.881.074a27.078,27.078,0,0,0,5.581-10.172l4.79,2.161.072.037v-2.683l4.034,2.012h9.47l1.117-1.416a1.02,1.02,0,0,1,.755-.372,1.428,1.428,0,0,1,.613.186l2.556,1.975a.638.638,0,0,1,.288.559,2.548,2.548,0,0,1-1.007,1.639v4.509c0,1.192-2.3,1.49-2.845,1.49-.4,0-1.405,0-1.405-.782v-.783h-9.651v2.608l1.441.932h9.218l1.008-1.081a.8.8,0,0,1,.685-.261,1.109,1.109,0,0,1,.576.186l1.872,1.6a.855.855,0,0,1,.289.708C903.871-238.618,903.69-238.357,902.9-237.389Zm-22.182-16.8a19.961,19.961,0,0,1-4.249,4.137,2.969,2.969,0,0,1,.971,2.309,2.64,2.64,0,0,1-2.412,2.72c-1.585,0-1.621-1.416-1.692-2.906a5.17,5.17,0,0,0-2.125-4.1l.216-.335a10.659,10.659,0,0,1,4.033,1.527,31.616,31.616,0,0,0,1.261-6.632l5.077,2.087c.252.112.5.261.5.521C882.3-254.228,881.688-254.228,880.716-254.192Zm-1.044,9.166a25.932,25.932,0,0,1-3.89,2.906,51.35,51.35,0,0,0,5.294-.261A6.25,6.25,0,0,0,879.672-245.026Zm5.185-3.912a4.061,4.061,0,0,1-1.333.074,21.371,21.371,0,0,1-3.241,3.316c1.189.521,4.466,2.236,4.466,5.4,0,1.267-.612,2.757-1.98,2.757a1.385,1.385,0,0,1-1.4-1.453c0-.261.072-1.527.072-1.788a8.475,8.475,0,0,1-1.441.632v2.832c1.729.932,4.069,2.608,3.926,5.44a42.776,42.776,0,0,0,.936-7.34Zm19.266-5.29H883.849l-.433-.82h15.522l1.728-1.937c.18-.223.288-.372.576-.372.216,0,.252.037.648.3l2.485,1.713a.728.728,0,0,1,.359.633C904.734-254.34,904.411-254.228,904.123-254.228Zm-5.69,4.322h-9.651v5.327h9.651ZM891.159-239.4h-1.045v4.769h1.045Zm4.1,0H894.22v4.769h1.044Zm4.285,0h-1.26v4.769h1.26Zm0,5.626h-1.26v6.817c.756.038.828.038,1.044-.037.216-.112.216-.222.216-1.266Z" transform="translate(-105.68 258.626)" fill="#fff"/>
      <path id="パス_35" data-name="パス 35" d="M941.938-230.781h-6.122v5.813c0,.894-2.016,1.527-2.665,1.527s-1.188-.261-1.188-.894v-6.446H922.1l-.288-.521a23.791,23.791,0,0,1-11.524,8.272l-.108-.374a26.748,26.748,0,0,0,6.8-6.668c-1.259-.374-1.259-1.454-1.259-2.571,0-.746,0-.783-.613-1.677a17.525,17.525,0,0,1-5.149,3.093l-.145-.372A21.425,21.425,0,0,0,915-241.661h-5.041l-.433-.857h6.338v-4.657h-2.881l-.359-.709a21.726,21.726,0,0,1-2.665,1.565l-.252-.3a23.646,23.646,0,0,0,5.222-11.215l5.4,1.528c.468.149.72.484.72.708a.583.583,0,0,1-.5.559c-.18.074-1.044.3-1.261.372-.287.484-.576.858-.863,1.3h17.392l1.657-2.236a.677.677,0,0,1,.576-.335c.217,0,.252,0,.684.3l2.845,1.938a.828.828,0,0,1,.36.633c0,.372-.288.521-.612.521h-3.888c.107.112.143.186.143.223,0,.559-.72.819-1.08.931v2.72l1.08-1.378c.144-.186.252-.374.576-.374a.991.991,0,0,1,.649.336l2.124,1.751a.848.848,0,0,1,.36.633c0,.41-.36.522-.648.522H936.5v4.657h.216l1.62-2.2a.712.712,0,0,1,.576-.372c.253,0,.4.112.649.335l2.413,1.9a.886.886,0,0,1,.359.67.545.545,0,0,1-.611.521H936.9a.639.639,0,0,1-.179.67,8.845,8.845,0,0,1-.9.746v1.788h1.189l1.224-1.788a.684.684,0,0,1,.577-.372c.252,0,.395.112.683.334l1.837,1.491a.854.854,0,0,1,.4.67.542.542,0,0,1-.613.521h-5.294v5.962h1.369l1.657-2.087a.6.6,0,0,1,.576-.372c.144,0,.288.038.647.336l2.125,1.788a.9.9,0,0,1,.361.67C942.551-230.93,942.263-230.781,941.938-230.781Zm-26.072-19.672a19.924,19.924,0,0,1-2.988,2.421h2.988Zm2.81,12.22a21.983,21.983,0,0,1-2.2,2.646,3.391,3.391,0,0,1,2.844,1.3,18.735,18.735,0,0,0,1.189-3.949Zm13.287-3.428H918.315l2.161.819c.288.112.4.149.4.41,0,.187-.036.336-.216.411a6.473,6.473,0,0,1-.9.3c-.072.112-.4.559-.469.633h1.657l.828-.895a1.27,1.27,0,0,1,.972-.447,1.523,1.523,0,0,1,.612.225l2.558,1.974v-2.011l3.961,1.788h2.088ZM921.521-252.54h-1.585v4.508h1.585Zm0,5.366h-1.585v4.657h1.585Zm4.393,10.32c-.217.187-.757.559-1.117.82a21.723,21.723,0,0,1-2.736,4.4h3.853Zm1.152-15.685h-1.621v4.508h1.621Zm0,5.366h-1.621v4.657h1.621Zm4.9,9.575h-2.376v5.962h2.376Zm.684-14.94h-1.728v4.508h1.728Zm0,5.366h-1.728v4.657h1.728Z" transform="translate(-105.68 258.613)" fill="#fff"/>
      <path id="パス_36" data-name="パス 36" d="M977.557-240.548a2.609,2.609,0,0,1-2.377-1.825c-.216-.484-1.008-2.683-1.189-3.13-1.548.335-8.5,1.975-9.938,2.273-1.549.335-8.463,1.639-9.9,1.937l3.925,1.752h13.757l1.008-1.23a1.6,1.6,0,0,1,1.116-.521,2.327,2.327,0,0,1,1.009.335l2.557,1.9a.913.913,0,0,1,.36.708,1.188,1.188,0,0,1-.433.931,6.882,6.882,0,0,0-.719.819v10.88c0,1.378-2.053,2.16-3.062,2.16-.72,0-1.765-.149-1.765-1.08v-2.05h-14.08v1.081a1.183,1.183,0,0,1-.359.968,3.991,3.991,0,0,1-2.7,1.192c-1.765,0-1.945-.447-1.945-1.341v-16.245c-.4.074-.756.113-1.081.149-.215.335-.576.858-.935.858a.532.532,0,0,1-.576-.448l-1.658-5.849c1.189-.037,6.447-.186,7.527-.186a108.653,108.653,0,0,0,4.321-11.178l6.194,1.938a.932.932,0,0,1,.684.745c0,.485-.4.6-1.477.708a76.245,76.245,0,0,1-7.2,7.713c3.709-.112,11.163-.3,14.584-.411a18.24,18.24,0,0,0-5.546-5.141l.109-.372c8.1.782,12.495,5.774,12.495,9.053A2.845,2.845,0,0,1,977.557-240.548Zm-5.655,1.9h-14.08v10.954H971.9Z" transform="translate(-105.68 258.618)" fill="#fff"/>
      <path id="パス_37" data-name="パス 37" d="M998.087-253.863a47.742,47.742,0,0,1-2.737,5.813l.432.41a.948.948,0,0,1,.4.671c0,.52-.54.819-1.009,1.117v20.6c0,1.713-3.024,1.751-3.1,1.751-1.549,0-1.549-.782-1.549-1.266V-241.27a16.294,16.294,0,0,1-5.041,3.949l-.215-.3a45.322,45.322,0,0,0,7.49-19.673l6.121,1.714c.324.075.793.3.793.782S999.491-254.273,998.087-253.863Zm15.881,29.36h-6.05c-5.689,0-5.978-2.719-5.978-5.626v-27.086l5.438.6c.288.037.756.186.756.67,0,.521-.649.708-1.584,1.007v13.189a53.31,53.31,0,0,0,5.941-10.283l5.294,2.832a.786.786,0,0,1,.468.67c0,.67-.72.67-1.08.67h-.576a50.461,50.461,0,0,1-10.047,8.719v8.271c0,2.012,1.368,2.012,2.341,2.012h3.961a2.473,2.473,0,0,0,2.52-1.267,45,45,0,0,0,2.484-6.483h.361l-.613,6.595c-.036.523.109.783,1.045,1.454a1.443,1.443,0,0,1,.756,1.266C1019.405-224.5,1015.66-224.5,1013.968-224.5Z" transform="translate(-105.68 258.632)" fill="#fff"/>
    </g>
  </g>
</svg>
