<svg id="_2020年7月4日_7日なかのZERO大ホール" data-name="2020年7月4日〜7日なかのZERO大ホール" xmlns="http://www.w3.org/2000/svg" width="250" height="57.432" viewBox="0 0 250 57.432">
  <path id="パス_38" data-name="パス 38" d="M-433.124,456.892c-3.264,3.58-3.3,3.612-6.242,7.1h5.829c1.173,0,2.82,0,3.549-2.154h.793l-.919,5.8h-12.008V465.6c1.268-1.743,2.693-3.739,5.228-7.414,2.661-3.866,3.453-5.8,3.453-7.541a3,3,0,0,0-3.263-3.073c-3.01,0-3.96,2.472-4.468,3.77l-.728-.285a10.608,10.608,0,0,1,1.077-3.549,6.19,6.19,0,0,1,5.513-3.326,5.821,5.821,0,0,1,6.147,5.766C-429.164,451.6-429.608,453-433.124,456.892Z" transform="translate(442.271 -444.187)" fill="#fff"/>
  <path id="パス_39" data-name="パス 39" d="M-408.466,467.964c-3.643,0-6.463-4.086-6.463-11.88,0-7.984,2.946-11.849,6.463-11.849,3.58,0,6.464,3.96,6.464,11.849C-402,464.035-404.918,467.964-408.466,467.964Zm.855-22.272a1.067,1.067,0,0,0-.855-.57c-.824,0-1.268,1.362-1.362,1.647-.539,1.647-.792,8.238-.792,10.487,0,1.774.158,9.822,2.154,9.822.824,0,1.236-1.331,1.331-1.647a40.3,40.3,0,0,0,.824-9.347C-406.311,453.77-406.438,447.339-407.611,445.691Z" transform="translate(433.451 -444.202)" fill="#fff"/>
  <path id="パス_40" data-name="パス 40" d="M-378.739,456.892c-3.263,3.58-3.295,3.612-6.242,7.1h5.83c1.173,0,2.82,0,3.549-2.154h.792l-.918,5.8h-12.008V465.6c1.267-1.743,2.693-3.739,5.228-7.414,2.661-3.866,3.453-5.8,3.453-7.541a3,3,0,0,0-3.263-3.073c-3.01,0-3.961,2.472-4.468,3.77l-.728-.285a10.619,10.619,0,0,1,1.077-3.549,6.19,6.19,0,0,1,5.513-3.326,5.82,5.82,0,0,1,6.147,5.766C-374.779,451.6-375.222,453-378.739,456.892Z" transform="translate(424.632 -444.187)" fill="#fff"/>
  <path id="パス_41" data-name="パス 41" d="M-354.081,467.964c-3.644,0-6.463-4.086-6.463-11.88,0-7.984,2.946-11.849,6.463-11.849,3.58,0,6.463,3.96,6.463,11.849C-347.618,464.035-350.532,467.964-354.081,467.964Zm.855-22.272a1.069,1.069,0,0,0-.855-.57c-.824,0-1.268,1.362-1.363,1.647-.538,1.647-.791,8.238-.791,10.487,0,1.774.158,9.822,2.154,9.822.824,0,1.236-1.331,1.331-1.647a40.341,40.341,0,0,0,.823-9.347C-351.927,453.77-352.054,447.339-353.226,445.691Z" transform="translate(415.885 -444.202)" fill="#fff"/>
  <path id="パス_42" data-name="パス 42" d="M-312.493,464.06h-7.521v5.52c0,.506-.266.7-.8.939a4.735,4.735,0,0,1-1.543.41c-.675,0-.892-.265-.892-.651V464.06h-10.678l-.29-.555h3.857v-7.328l3.278,1.446h3.833V452.8h-4.966a17.2,17.2,0,0,1-5.954,5.568l-.168-.193a22.21,22.21,0,0,0,4.267-9.473l3.759.94c.242.072.435.145.435.361,0,.289-.145.337-.82.53-.289.458-.53.82-1.157,1.735h10.437l1.64-1.807a.446.446,0,0,1,.41-.217.58.58,0,0,1,.41.217l1.9,1.591a.575.575,0,0,1,.241.434c0,.241-.217.313-.434.313h-6.484a.431.431,0,0,1,.217.362c0,.265-.241.361-.506.482v3.977h2.025l1.422-1.663c.121-.145.193-.241.387-.241a.63.63,0,0,1,.433.217l1.687,1.47a.581.581,0,0,1,.218.434c0,.241-.218.313-.41.313h-5.761v5.351h3.23l1.687-2.073c.121-.145.193-.24.411-.24a.626.626,0,0,1,.409.216l1.976,1.88a.574.574,0,0,1,.241.458C-312.06,463.963-312.3,464.06-312.493,464.06Zm-10.751-5.906h-4.026v5.351h4.026Z" transform="translate(407.41 -445.652)" fill="#fff"/>
  <path id="パス_43" data-name="パス 43" d="M-285.886,455.65a45.893,45.893,0,0,0-1.331,12.135h-4.593c.411-7.16,3.549-13.211,7.541-19.485h-5.418c-3.009,0-3.485,1.585-4.055,3.453h-.792l1.045-7.1h11.913v2.06A24.9,24.9,0,0,0-285.886,455.65Z" transform="translate(394.534 -444.339)" fill="#fff"/>
  <path id="パス_44" data-name="パス 44" d="M-251.091,452.636V468.28a1.8,1.8,0,0,1-.675,1.663,4.679,4.679,0,0,1-2.627.748c-.748,0-.772-.073-.8-.579-.12-1.59-1.3-1.88-3.182-2.338v-.241c.048,0,2.652.145,3.158.145.723,0,.94-.409.94-1.084v-5.038h-7.014a10.8,10.8,0,0,1-7.135,9.353l-.145-.217c2.434-1.808,3.374-4.484,3.88-7.328.41-2.218.41-2.941.41-13.884l3.254,1.3h6.6l.892-1.013a.991.991,0,0,1,.747-.313.954.954,0,0,1,.651.289l1.639,1.4a.566.566,0,0,1,.217.458C-250.272,451.84-250.32,451.864-251.091,452.636Zm-3.182,3.712h-6.8c0,1.35,0,3.374-.145,4.676h6.942Zm0-5.038h-6.8v4.507h6.8Z" transform="translate(386.138 -445.895)" fill="#fff"/>
  <path id="パス_45" data-name="パス 45" d="M-221.571,462.2v3.136c0,1.172.6,1.489,2.028,1.489v.824h-8.142v-.824h.475a1.381,1.381,0,0,0,1.584-1.489V462.2h-6.685v-1.173l9.726-16.791h1.013v16.791h2.059V462.2Zm-4.055-10.456-5.386,9.282h5.386Z" transform="translate(374.408 -444.202)" fill="#fff"/>
  <path id="パス_46" data-name="パス 46" d="M-188.083,453.031v15.861c0,.723-1.567,1.374-2.483,1.374a.788.788,0,0,1-.892-.8v-1.519h-8.316v.989c0,1.253-2.121,1.639-2.579,1.639-.772,0-.772-.506-.772-.916V449.632l3.424,1.567h8.22l.916-.989a1.037,1.037,0,0,1,.8-.434,1.231,1.231,0,0,1,.747.314l1.567,1.253a.606.606,0,0,1,.289.53C-187.167,452.139-187.191,452.332-188.083,453.031Zm-3.375-1.278h-8.316v7.521h8.316Zm0,8.076h-8.316V467.4h8.316Z" transform="translate(364.97 -445.953)" fill="#fff"/>
  <path id="パス_47" data-name="パス 47" d="M-150.033,463.445c-.627.94-3.447,3.326-6.051,3.326a13,13,0,0,1-5.038-1.687c-3.375-1.711-4.411-1.736-5.424-1.736a7.47,7.47,0,0,0-4.556,1.591l-.337-.386c.627-.941,3.422-3.326,6.026-3.326a12.953,12.953,0,0,1,5.061,1.687c3.374,1.711,4.411,1.735,5.424,1.735a7.513,7.513,0,0,0,4.555-1.591Z" transform="translate(354.727 -449.749)" fill="#fff"/>
  <path id="パス_48" data-name="パス 48" d="M-123.811,455.65a45.862,45.862,0,0,0-1.33,12.135h-4.594c.411-7.16,3.549-13.211,7.541-19.485h-5.418c-3.009,0-3.485,1.585-4.055,3.453h-.791l1.045-7.1H-119.5v2.06A24.9,24.9,0,0,0-123.811,455.65Z" transform="translate(342.147 -444.339)" fill="#fff"/>
  <path id="パス_49" data-name="パス 49" d="M-88.421,453.031v15.861c0,.723-1.567,1.374-2.482,1.374a.788.788,0,0,1-.893-.8v-1.519h-8.316v.989c0,1.253-2.122,1.639-2.58,1.639-.771,0-.771-.506-.771-.916V449.632l3.423,1.567h8.22l.916-.989a1.035,1.035,0,0,1,.8-.434,1.231,1.231,0,0,1,.747.314l1.567,1.253a.606.606,0,0,1,.289.53C-87.5,452.139-87.529,452.332-88.421,453.031Zm-3.375-1.278h-8.316v7.521H-91.8Zm0,8.076h-8.316V467.4H-91.8Z" transform="translate(332.742 -445.953)" fill="#fff"/>
  <path id="パス_50" data-name="パス 50" d="M-430.635,499.434c.513.026,1.464.154,1.464.822a1.182,1.182,0,0,1-.385.719c-1.233,1.309-3.364,1.9-5.289,2.413-3.182,6.983-3.747,8.215-4.7,9.961-.95,1.695-1.1,1.951-1.541,1.951-1.078,0-1.258-1.207-1.258-1.669,0-.744.257-1.13.924-2.054a41.98,41.98,0,0,0,4.236-7.65,5.182,5.182,0,0,1-.847.077,2.848,2.848,0,0,1-2.131-.822,4.689,4.689,0,0,1-1.1-2.233.136.136,0,0,1,.154-.154q.077,0,.154.154a3.216,3.216,0,0,0,2.49.976,10.134,10.134,0,0,0,2.234-.334,8.914,8.914,0,0,0,.77-2.978,1.368,1.368,0,0,0-.873-1.335c-.23-.128-.23-.232-.23-.282,0-.359.667-.359.924-.359,2.182,0,3.44,1.54,3.363,2.311A3.1,3.1,0,0,0-430.635,499.434Zm-.642,11.835a16.681,16.681,0,0,1-.437-2.85c0-2.233,1.206-3.517,4.107-3.517.154,0,.8.051.924.026.078-.026.129-.077.129-.128,0-.462-2.8-1.258-3.851-1.258-.334,0-.462,0-.462-.1,0-.282,1.771-.822,3.414-.822,2.8,0,4.749,1.386,4.749,2.414,0,.18-.1,1.053-.924,1.053a5.894,5.894,0,0,1-1.078-.18,7.157,7.157,0,0,0-2.053-.385c-2.233,0-2.439,1.643-2.439,2.131a17.9,17.9,0,0,0,.924,4.7,17.264,17.264,0,0,0,1.9.744c1.515.642,2.645,1.438,2.645,2.722,0,.616-.308,1.129-.976,1.129a2.8,2.8,0,0,1-1.412-.744,4.6,4.6,0,0,0-2.207-1.258c.051,1.9-1.951,3.029-4.107,3.029-.411,0-4.647-.154-4.647-3.132,0-2.772,3.492-3.029,4.852-3.029.411,0,.668.025,1.027.051C-431.226,511.628-431.226,511.552-431.277,511.269Zm-2.028,4.672c.59,0,2.387-.077,2.387-1.8a.5.5,0,0,0-.1-.359,4.735,4.735,0,0,0-2.388-.539c-1.848,0-2.7.693-2.7,1.309C-436.1,515.71-433.947,515.941-433.3,515.941Zm1.257-16.328c0-.282-.077-.334-.385-.488-.641.411-.745.462-1.335,1.771C-432.51,500.461-432.047,500.281-432.047,499.614Z" transform="translate(442.342 -461.358)" fill="#fff"/>
  <path id="パス_51" data-name="パス 51" d="M-400.968,512.937a8.155,8.155,0,0,0,3.03,1.078,1.431,1.431,0,0,0,1.206-.616,12.727,12.727,0,0,0,1.592-6.289c0-.951,0-2.336-1.335-2.336a6.687,6.687,0,0,0-1.849.436c-.975,2.31-4.647,10.218-5.314,11.141a1.378,1.378,0,0,1-1.078.694c-.642,0-1.181-.873-1.181-1.9a2.336,2.336,0,0,1,.693-1.695,22.294,22.294,0,0,0,4.339-7.342c-.282.1-1.182.436-1.361.514-.514.282-.693.384-.949.384a3.656,3.656,0,0,1-2.439-1.848,3.85,3.85,0,0,1-.436-1.207c0-.128.026-.18.128-.18a1.352,1.352,0,0,1,.308.077c1.309.693,1.438.77,1.951.77a31.494,31.494,0,0,0,3.568-.873,20.653,20.653,0,0,0,.719-3.774,1.412,1.412,0,0,0-1.1-1.514c-.1-.026-.282-.051-.282-.206,0-.257,1.207-.591,1.977-.591,1.283,0,2.824,1.284,2.824,2.285,0,.359-.051.359-.565.847a6.88,6.88,0,0,0-1.1,2.516c.257-.026.872-.129,1.232-.129,2.568,0,3.363,2.08,3.363,4.929,0,3.954-1.772,9.345-4.441,9.345-.949,0-1.232-.308-1.232-.924,0-.077.051-.411.051-.463a3.765,3.765,0,0,0-1.334-1.976,12.236,12.236,0,0,1-1.078-.976Zm10.243-3.954c1.849-.462,2.389-.745,2.389-1.489s-.411-2.542-2.465-4.415c-.231-.231-1.541-1.181-1.541-1.259s.077-.153.205-.153a13.032,13.032,0,0,1,3.826,1.771,6.9,6.9,0,0,1,3.183,5.7c0,1.232-.668,1.617-1.155,1.617s-.617-.128-1.1-.745c-.565-.668-1.335-.77-3.338-.77Z" transform="translate(430.572 -461.691)" fill="#fff"/>
  <path id="パス_52" data-name="パス 52" d="M-358.5,517.3c1.771-.308,8.266-2.053,8.266-9.652,0-6.008-5.263-6.829-7.009-6.829a7.83,7.83,0,0,0-1.078.077,2.529,2.529,0,0,1,.822,1.9c0,1.335-1.052,7.933-5.186,12.22-.718.745-1.463,1.515-2.259,1.515a1.315,1.315,0,0,1-1.309-1.309c-.128-.924-.18-1.258-.565-1.669a3.606,3.606,0,0,1-1.386-3.286,10.968,10.968,0,0,1,11.322-10.474c6.444,0,9.576,4.416,9.576,9.166,0,8.42-9.7,8.574-10.037,8.574a7.217,7.217,0,0,1-1.155-.076Zm-7.137-7.65c0,.18.051,3.029,1.1,3.029,1.9,0,5.494-7.008,5.494-10.4a5.91,5.91,0,0,0-.155-1.207A9,9,0,0,0-365.636,509.647Z" transform="translate(418.364 -462.381)" fill="#fff"/>
  <path id="パス_53" data-name="パス 53" d="M-327.013,517.368h2.747a6.063,6.063,0,0,0,3.8-1.874,6.319,6.319,0,0,0,2.105-4.03h.642l-.282,6.572h-12.733v-.667l9.6-17.405h-2.875a4.951,4.951,0,0,0-3.491,1.566,6.114,6.114,0,0,0-1.849,4.107h-.667l.256-6.341h12.349v.668Z" transform="translate(406.243 -462.221)" fill="#fff"/>
  <path id="パス_54" data-name="パス 54" d="M-291.35,518.036h-14.761v-.667c1.72-.025,2.234-.257,2.234-2v-13.4c0-1.746-.412-1.977-2.234-2V499.3h14.248l.488,6.213h-.668a7.089,7.089,0,0,0-2.259-4.236,5.466,5.466,0,0,0-3.774-1.31c-1.977,0-2.414.745-2.414,2v6.059h1.386c.693,0,2.644-.359,2.824-3.568h.642v8.291h-.642c-.154-3.362-1.848-4.056-2.824-4.056h-1.386v6.675c0,1.232.565,2,2.388,2a5.809,5.809,0,0,0,4.621-2.156,8.243,8.243,0,0,0,1.643-3.953h.668Z" transform="translate(398.28 -462.221)" fill="#fff"/>
  <path id="パス_55" data-name="パス 55" d="M-265.377,518.292c-1.257,0-3.209-.822-3.517-4.57-.257-2.927-.282-3.542-.8-4.313a1.823,1.823,0,0,0-1.566-.745h-1.874v6.649c0,1.822.41,2.028,2.182,2.053v.667h-7.8v-.667c1.541-.025,2.233-.282,2.233-2.053V502.042c0-1.822-.436-2.053-2.233-2.079V499.3h9.37c3.594,0,5.622,2.157,5.622,4.518,0,2.465-2.053,4.159-5.751,4.57,2.208.745,3.312,1.9,4.159,4.929.256.95.745,2.747,1.591,2.747.668,0,.95-1.617,1-1.874h.668C-262.321,515.442-262.835,518.292-265.377,518.292Zm-5.493-18.33c-1.926,0-2.259.513-2.259,2.079v5.982h2.259c2.619,0,3.311-1.977,3.311-3.928C-267.558,501.221-268.354,499.963-270.87,499.963Z" transform="translate(389.431 -462.221)" fill="#fff"/>
  <path id="パス_56" data-name="パス 56" d="M-240.913,518.181c-3.825,0-8.009-4.082-8.009-9.627s4.184-9.6,8.009-9.6,7.984,4.082,7.984,9.6C-232.928,514.125-237.139,518.181-240.913,518.181Zm0-18.509c-3.441,0-4.236,4.286-4.236,8.882,0,4.493.745,8.883,4.236,8.883,3.62,0,4.21-4.8,4.21-8.883C-236.7,504.165-237.4,499.673-240.913,499.673Z" transform="translate(379.783 -462.11)" fill="#fff"/>
  <path id="パス_57" data-name="パス 57" d="M-198.226,517.281c-.359.847-.41.95-.667.95-.205,0-.411-.154-.77-.411-4.7-3.364-6.572-8.395-7.111-13.2-.386,4.03-1.181,6.315-2.722,8.292a14.1,14.1,0,0,1-10.115,5.443l-.051-.257a13.557,13.557,0,0,0,6.007-4.211c2.593-3.157,3.08-6.187,3.414-10.4h-8.985l-.308-.565h9.319c.154-2.567.179-5.751.179-7.624l4.005.385c.308.026.565.205.565.462,0,.282-.1.334-1.026.744,0,1,0,3.055-.155,6.033h5.725l1.72-2.157a.554.554,0,0,1,.41-.23.722.722,0,0,1,.489.23l2,1.926c.154.128.282.231.282.463,0,.257-.257.333-.462.333h-9.807a19.214,19.214,0,0,0,3.62,7.009,14.847,14.847,0,0,0,7.085,4.774v.283A2.931,2.931,0,0,0-198.226,517.281Z" transform="translate(370.326 -460.927)" fill="#fff"/>
  <path id="パス_58" data-name="パス 58" d="M-172.211,513.923a10,10,0,0,0,2.619.539c.41,0,.462-.18.488-.385.1-.745.1-6.931.1-8.78a29.04,29.04,0,0,0-5.776,1.155c-.051.026-.924.36-.976.36-.591,0-2.413-1.848-2.413-3.286,0-.077,0-.231.129-.231a3.524,3.524,0,0,1,.744.514,2.135,2.135,0,0,0,1.258.308c.77,0,5.879-.591,7.034-.718,0-2.105,0-4.493-.334-5.135a1.542,1.542,0,0,0-.745-.667c-.1-.051-.514-.231-.514-.334,0-.308,1.155-.437,1.437-.437,1.284,0,3.338,1.18,3.338,1.822a7.731,7.731,0,0,1-.565,1.13,11.363,11.363,0,0,0-.41,3.388c.693-.076,4.235-.41,4.312-.436.128-.026.719-.308.847-.308.539,0,2.952.77,2.952,2.028a.715.715,0,0,1-.821.745,7.964,7.964,0,0,1-1.49-.18,15.54,15.54,0,0,0-2.182-.128c-.949,0-2.208.051-3.645.179-.051,2.824-.051,3.261-.051,4.519,0,.77.1,3.568.128,4.339.026.231.1,1.232.1,1.438,0,.9-.462,2.952-1.54,2.952-.463,0-.72-.462-1.028-1.232-.231-.591-.514-1.336-3.08-3.03Zm-1.053-4c0,2.8-1.591,5.622-3.362,5.622a1.16,1.16,0,0,1-1.1-1.206c0-.77.436-1.1,1.745-2.131a6.848,6.848,0,0,0,2.516-3.979A7.077,7.077,0,0,1-173.264,509.919Zm14.4,2.978a1.355,1.355,0,0,1-1.181,1.464c-1,0-1.309-.745-2.054-2.414a12.352,12.352,0,0,0-1.849-2.336,5.964,5.964,0,0,0-2.079-1.387C-162.173,508.352-158.861,510.585-158.861,512.9Z" transform="translate(356.902 -461.42)" fill="#fff"/>
  <path id="パス_59" data-name="パス 59" d="M-138.035,510.677c1.618,0,9.524-.462,11.322-.539.231,0,1.309-.333,1.566-.333.77,0,2.619,1.232,2.619,2.208,0,.384-.436.693-.976.693-.308,0-.9-.077-1.335-.128a35.489,35.489,0,0,0-4.261-.385c-.924,0-7.5.488-8.318.616-.282.026-1.591.462-1.925.462s-2.619-.77-2.8-4.21A4.973,4.973,0,0,0-138.035,510.677Z" transform="translate(345.287 -465.359)" fill="#fff"/>
  <path id="パス_60" data-name="パス 60" d="M-107.333,517.359c4.928-3.594,5.7-8.395,5.7-12.117,0-.872,0-2.772-.514-3.261-.153-.128-1.026-.538-1.026-.718,0-.282,1.284-.359,1.464-.359a5.125,5.125,0,0,1,3.543,1.977c0,.179-.591.718-.616.847-.1.335-.359,3.312-.436,3.928a11.235,11.235,0,0,1-4.647,8.317,9.935,9.935,0,0,1-3.337,1.618ZM-84,506.319c-2.105,4.622-7.034,7.676-8.267,8.4a2.253,2.253,0,0,0-.9.8c-.436.744-.489.822-.822.822-1,0-2.824-2.952-2.824-3.466a5.7,5.7,0,0,1,.359-.924,53.475,53.475,0,0,0,.257-6.547,27.485,27.485,0,0,0-.18-4.236,1.694,1.694,0,0,0-.77-1.027c-.128-.077-.847-.359-.847-.513,0-.36.745-.591,1.309-.591,1.463,0,3.8,1.438,3.8,2.182a5.57,5.57,0,0,1-.436.873c-.308.718-.591,4.929-.591,8.266,0,1.669,0,1.874.668,1.874,2.156,0,7.214-3.954,9.139-5.982Z" transform="translate(333.997 -462.134)" fill="#fff"/>
</svg>
