<svg xmlns="http://www.w3.org/2000/svg" width="460" height="68" viewBox="0 0 460 68">
  <g id="子ページタイトル" transform="translate(-1379 263)">
    <g id="完全版マハーバーラタ" transform="translate(1379 -235.896)">
      <path id="パス_2" data-name="パス 2" d="M143.94-164.437H131.572c-3.689,0-3.689-3.081-3.689-3.862v-13.28h-5.641l2.821.565c.39.087,1,.347,1,.781s-.3.521-1.171.824c-.217,4.817-2.17,9.157-4.383,11.457-2.821,2.907-7.637,4.687-12.759,4.9l-.13-.434c9.373-3.472,10.979-8.809,11.152-18.1H108.529l-.521-.955h30.681l2.17-3.037a.8.8,0,0,1,.694-.39,1.364,1.364,0,0,1,.824.347l3.6,2.69a.919.919,0,0,1,.434.781c0,.434-.39.564-.738.564h-11.2a.817.817,0,0,1,.087.347c0,.521-.434.651-1.128.912v9.2a1.316,1.316,0,0,0,1.432,1.476h6.77c.954,0,1.562-.911,1.822-1.606.564-1.389,1.475-4.253,2.04-6.119l.434.087-.39,6.6a1.558,1.558,0,0,0,.521,1.432,2.969,2.969,0,0,1,.781,2.039A2.832,2.832,0,0,1,143.94-164.437Zm1.952-28.641c-.13,0-1.041-.087-1.258-.087a34.7,34.7,0,0,1-5.337,2.734l1,.824a1.026,1.026,0,0,1,.39.781c0,.434-.39.565-.738.565H115l-.521-.955h19.095l2.126-2.994a.8.8,0,0,1,.694-.391,1.228,1.228,0,0,1,.781.391l1.085.911a18.613,18.613,0,0,0,1.128-3.819H115.429c.26,2.778-.911,7.031-4.6,7.031a2.919,2.919,0,0,1-3.168-2.865c0-1.562.521-1.909,3.038-3.645,2-1.389,2.256-2.864,2.517-5.6h.434a12.231,12.231,0,0,1,1.649,4.079h9.634v-5.815l4.99.26c.3.044,1.693.087,1.693.868,0,.347-.13.651-1.475,1.345v3.341h9.113l1.345-2a1.7,1.7,0,0,1,1.215-.694,1.56,1.56,0,0,1,1.085.261l3.862,3.3a1.237,1.237,0,0,1,.521,1.042C147.282-193.643,146.891-193.078,145.893-193.078Z" transform="translate(-107.618 203.111)" fill="#fff"/>
      <path id="パス_3" data-name="パス 3" d="M234.3-183.228c-.174,1-.217,1.216-.694,1.216s-3.429-.955-7.074-4.209c-.044.39-.434.477-.738.477h-5.554a1.034,1.034,0,0,1,.087.391c0,.347-.217.521-.911.954v7.464h4.557l2.387-2.951a.767.767,0,0,1,.694-.391,1.344,1.344,0,0,1,.782.391l2.82,2.56a1.039,1.039,0,0,1,.434.825c0,.434-.39.564-.737.564H219.411v10.329h8.722l2.474-3.211a.937.937,0,0,1,.738-.434,1.226,1.226,0,0,1,.781.391L235.468-166a.971.971,0,0,1,.391.781c0,.434-.391.565-.738.565H197.93l-.521-.955H213.6v-10.329h-12.02l-.521-1H213.6v-8.809h-7.29a31.961,31.961,0,0,1-10.329,4.47l-.174-.391c10.025-5.12,14.842-16.4,16.751-21.481l7.464,1.779c.391.086,1.042.433,1.042.911,0,.564-.391.868-1.085,1.258,4.253,7.812,12.715,10.285,17.315,11.544v.477A5.062,5.062,0,0,0,234.3-183.228ZM218.76-198.806h-.433c-4.079,5.6-6.9,9.2-10.676,12.107h12.5l1.692-2.647a.826.826,0,0,1,.695-.434,1.466,1.466,0,0,1,.825.391l.607.521A29.181,29.181,0,0,1,218.76-198.806Z" transform="translate(-151.711 203.719)" fill="#fff"/>
      <path id="パス_4" data-name="パス 4" d="M327.17-168.169c-2.213.564-2.517,1.91-3.081,4.3a.693.693,0,0,1-.651.607c-.738,0-3.6-3.125-5.945-7.377-1.259,1.389-4.773,5.164-12.281,7.681l-.173-.434A30.845,30.845,0,0,0,315.8-174.288a39.675,39.675,0,0,1-2.734-14.365h-.824v4.34c0,4.513-2.257,16.1-10.242,21.307l-.3-.3c2-2.214,3.645-6.032,4.253-10.285.434-3.081.824-6.769.824-8.158v-7.855H294.319v6.857h2.647l1.345-1.736a1.069,1.069,0,0,1,.911-.478,1.993,1.993,0,0,1,1.085.435l3.3,2.56a.774.774,0,0,1,.26.564c0,.477-.868,1.3-1.475,1.91v14.277c0,.955-2.04,2-3.472,2-.65,0-1.736-.13-1.736-1.041V-181.8h-2.864c0,6.509-2.951,14.755-6.987,18.877l-.391-.261a27.276,27.276,0,0,0,1.736-8.332c.087-1.042.477-7.811.477-8.288V-202.1l5.728.477c.3.044.738.174.738.652,0,.521-.347.738-1.3,1.258v9.157h3.038v-11.848l5.859.738c.174.043.694.086.694.607s-.433.694-1.389,1.085v8.939l1.042-1.823a.814.814,0,0,1,.738-.391,1.885,1.885,0,0,1,.738.3l1.735,1.562v-11.456l5.382,2.648h8.288l1.866-2.257c.217-.26.347-.434.694-.434.261,0,.3.043.738.348l3.038,2a.834.834,0,0,1,.477.781c0,.434-.434.565-.781.565H312.242v9.547h7.594l1.953-2.083a1.076,1.076,0,0,1,.911-.478,1.589,1.589,0,0,1,.911.391l3.255,3.038a.925.925,0,0,1,.347.738c0,.26-.694.868-1.475,1.562-2.083,7.464-3.993,10.5-5.078,12.195a26.365,26.365,0,0,0,6.683,5.684Zm-13.149-20.483a28.218,28.218,0,0,0,3.689,10.415,33.668,33.668,0,0,0,2.43-10.415Z" transform="translate(-196.885 203.589)" fill="#fff"/>
      <path id="パス_5" data-name="パス 5" d="M410.79-183.287a35.484,35.484,0,0,0,2.682-4.606c0-.05-.05-.354-.506-.354-2.177,0-20.6,3.9-23.839,5.061a23.223,23.223,0,0,1-3.239,1.417c-1.822,0-5.568-5.517-5.568-8,0-.3.1-.456.354-.456.3,0,1.569,1.114,1.873,1.316a5.21,5.21,0,0,0,3.594,1.164c1.113,0,26.066-3.492,27.888-4.1a20.6,20.6,0,0,1,2.48-1.417c2.025,0,6.074,5.719,6.074,7.035,0,1.012-.809,1.012-2.328,1.063-.557,0-.759.051-2.024,1.164-9.718,8.756-10.477,9.414-13.666,11.641,1.67,2.025,3.189,4.859,3.189,7.39,0,3.037-2.177,3.543-3.189,3.543a2.362,2.362,0,0,1-1.923-.861,32.878,32.878,0,0,1-1.671-4.757c-1.872-5.163-5.162-9.819-10.224-11.894a19.217,19.217,0,0,1,12.4,5.061A66.43,66.43,0,0,0,410.79-183.287Z" transform="translate(-243.367 198.775)" fill="#fff"/>
      <path id="パス_6" data-name="パス 6" d="M477.6-161.826c5.264-4.808,8.4-8.706,10.679-13.514,1.165-2.43,3.189-7.187,3.189-8.908a4.2,4.2,0,0,0-1.873-3.087c-.151-.1-.556-.354-.556-.607,0-.355,1.316-.355,1.873-.355,1.974,0,3.189.405,5.769,2.987.506.506,1.721,1.771,1.721,2.429,0,.456-.253.557-.861.911-.861.456-1.214,1.165-2.024,2.834-3.391,7.389-7.744,13.666-17.917,17.613Zm45.754-6.276c0,.911,0,4.049-2.733,4.049-2.48,0-2.885-2.126-3.138-3.29-2.076-9.819-3.746-13.666-12-21.258C515.461-185.564,523.357-175.037,523.357-168.1Z" transform="translate(-291.786 196.446)" fill="#fff"/>
      <path id="パス_7" data-name="パス 7" d="M593.917-169.014c3.189,0,18.777-.911,22.32-1.063.455,0,2.581-.658,3.087-.658,1.518,0,5.162,2.43,5.162,4.353,0,.76-.861,1.367-1.923,1.367-.608,0-1.772-.152-2.633-.253a69.932,69.932,0,0,0-8.4-.759c-1.822,0-14.779.962-16.4,1.215-.556.051-3.138.911-3.8.911s-5.163-1.518-5.517-8.3C587.336-170.735,589.057-169.014,593.917-169.014Z" transform="translate(-345.67 188.248)" fill="#fff"/>
      <path id="パス_8" data-name="パス 8" d="M672.977-168.964c8.5-6.428,13.615-20.3,13.615-22.928,0-.81-.2-1.671-1.924-3.189-.1-.1-.354-.3-.354-.557s1.063-.354,1.671-.354a5.8,5.8,0,0,1,4.4,1.72c.152.1,3.239,2.531,3.239,3.7,0,.557-.607.861-1.214,1.164a12.635,12.635,0,0,0-1.367,2.582c-5.213,9.616-9.009,14.526-17.765,18.271Zm46.058-6.783c0,2.733-1.923,3.948-3.087,3.948-2.379,0-2.834-2.683-3.341-5.72-.962-5.415-3.644-11.236-11.59-18.726C710.177-194.271,719.035-182.477,719.035-175.746Zm-.961-18.423a1.8,1.8,0,0,1-1.62,1.721c-1.164,0-1.873-1.266-2.379-2.126-2.177-3.846-4.2-4.859-5.366-5.415C713.315-200.192,718.073-197.56,718.073-194.169Zm-3.594-10.123c4.3,0,8.2,2.683,8.2,5.062a1.755,1.755,0,0,1-1.569,1.823c-.759,0-1.164-.456-1.72-1.215-1.722-2.379-2.734-3.594-6.985-5.467A12.551,12.551,0,0,1,714.479-204.292Z" transform="translate(-389.025 204.292)" fill="#fff"/>
      <path id="パス_9" data-name="パス 9" d="M789.493-169.014c3.188,0,18.778-.911,22.321-1.063.456,0,2.581-.658,3.087-.658,1.518,0,5.163,2.43,5.163,4.353,0,.76-.861,1.367-1.923,1.367-.607,0-1.771-.152-2.632-.253a69.931,69.931,0,0,0-8.4-.759c-1.822,0-14.779.962-16.4,1.215-.557.051-3.139.911-3.8.911s-5.163-1.518-5.517-8.3C782.914-170.735,784.634-169.014,789.493-169.014Z" transform="translate(-443.03 188.248)" fill="#fff"/>
      <path id="パス_10" data-name="パス 10" d="M878.878-160.966c4.1-1.568,9.972-4.605,13.818-10.325a43.206,43.206,0,0,0,5.972-13.564.267.267,0,0,0-.3-.3c-.354,0-13.614,1.468-17.563,3.543-1.518.76-1.67.861-2.075.861-.962,0-5.618-2.885-5.618-6.225,0-.3,0-.759.4-.759a1.583,1.583,0,0,1,.557.405,5.823,5.823,0,0,0,4.3,1.468c3.594,0,19.79-1.974,20.448-2.278.3-.152,1.316-1.164,1.569-1.316a1.487,1.487,0,0,1,.962-.355c1.518,0,5.315,3.391,5.315,4.758,0,.911-.659,1.214-1.772,1.822a3.141,3.141,0,0,0-1.671,1.923c-6.378,15.589-15.234,19.993-24.346,20.853Zm1.165-35.581a8.63,8.63,0,0,0,2.935.608c2.986,0,11.287-.4,12.6-1.417.151-.1.759-.658.911-.81a1.021,1.021,0,0,1,.708-.253c1.265,0,5.011,1.367,5.011,3.441,0,1.417-1.417,1.468-4.1,1.569-1.012,0-12.5,1.417-13.464,1.721a11.791,11.791,0,0,1-1.265.354c-1.164,0-5.82-3.188-5.82-6.022,0-.051,0-.3.051-.355A24.673,24.673,0,0,1,880.044-196.548Z" transform="translate(-488.525 201.356)" fill="#fff"/>
      <path id="パス_11" data-name="パス 11" d="M954.6-163.092a36.539,36.539,0,0,0,19.739-14.678,21.378,21.378,0,0,0-6.782-6.327,29.327,29.327,0,0,1-11.641,6.782l-.2-.405c7.238-4.707,14.121-16.449,14.121-19.587a3.948,3.948,0,0,0-.455-1.367,10.708,10.708,0,0,1-.911-1.366c0-.456.405-.506.708-.506,2.633,0,4.353,1.822,5.264,2.783.506.557,1.923,2.126,1.923,2.886,0,.2-.051.354-.607.657-.2.152-1.012.557-1.114.658.405.051,2.429.1,2.834.1a13.655,13.655,0,0,0,3.8-.759c1.975-1.366,2.177-1.518,2.835-1.518,1.012,0,2.227,1.265,2.987,2.025s2.176,2.176,2.176,2.885c0,.456-.2.658-2.024,1.771-.911.607-1.012.809-1.721,2.632a37.393,37.393,0,0,1-4.707,8.6,10.642,10.642,0,0,1,1.772,4.757c0,.507-.4,2.683-2.126,2.683-1.924,0-2.531-1.114-3.493-2.834-4.2,4.5-12.046,10.275-22.371,10.527Zm26.522-27.23c0-.3-.152-.4-.405-.4-.708,0-3.9.557-4.656.557a5.392,5.392,0,0,1-2.834-1.367,56.274,56.274,0,0,1-4.91,6.63,26.71,26.71,0,0,1,8.453,3.493C979.046-185.261,981.121-189.563,981.121-190.322Z" transform="translate(-529.27 202.419)" fill="#fff"/>
    </g>
    <g id="世界最長の叙事詩をピーター_ブルック以来の全編舞台化" data-name="世界最長の叙事詩をピーター・ブルック以来の全編舞台化" transform="translate(1379.87 -263)">
      <path id="パス_12" data-name="パス 12" d="M125.635-251.816h-2.4v5.852c0,.9-1.458,1.044-1.62,1.044-.612,0-.612-.36-.612-.594v-.739h-2.251v1.621c0,.648-1.224.9-1.71.9-.45,0-.63-.27-.63-.666v-7.418h-2.142v9.038h8.174L123.474-244c.09-.107.126-.18.289-.18a.511.511,0,0,1,.324.162l1.207,1.063a.551.551,0,0,1,.18.324c0,.18-.162.253-.324.253H114.273v.54c0,.648-1.638.864-1.837.864-.5,0-.5-.378-.5-.828v-10.011h-2.359l-.216-.415h2.575v-4.843l2.521.27c.144.018.342.054.342.234,0,.27-.306.4-.522.486v3.853h2.142v-4.879l2.4.288c.27.036.432.126.432.324,0,.288-.324.342-.487.36v3.907h2.251v-4.807l2.34.306c.144.018.433.108.433.324,0,.288-.4.4-.541.432v3.565l.81-.919c.108-.126.144-.18.288-.18.126,0,.18.054.324.162l1.117.954a.364.364,0,0,1,.162.325C125.941-251.889,125.8-251.816,125.635-251.816Zm-4.628,0h-2.251v5.149h2.251Z" transform="translate(-109.358 257.848)" fill="#fff"/>
      <path id="パス_13" data-name="パス 13" d="M162.693-245.155c-.036.27-.036.288-.072.288a7.718,7.718,0,0,1-3.385-1.819v4.519c0,.739-1.062.937-1.693.937-.558,0-.612-.162-.612-.433v-6.5l.919.09a8.8,8.8,0,0,1-1.531-2.449h-.594a8.636,8.636,0,0,1-2.089,2.413l.954.162c.18.036.378.108.378.324,0,.235-.072.253-.613.5-.144,1.548-.522,4.844-5.581,5.978l-.09-.18c2.9-1.513,3.1-3.727,3.241-5.546a11.13,11.13,0,0,1-4.5,1.747l-.072-.18a10.475,10.475,0,0,0,5.132-5.222h-.774v.306c0,.666-1.89.81-1.945.81a.427.427,0,0,1-.469-.486v-7.8l2.539,1.063h7.94l.576-.684a.608.608,0,0,1,.522-.27.879.879,0,0,1,.45.18l1.261.918a.483.483,0,0,1,.252.414c0,.342-.27.522-.594.72v4.663c0,.72-1.224,1.17-1.819,1.17-.558,0-.558-.288-.558-.612v-.4H157.13a10.058,10.058,0,0,0,6.77,3.205v.18A2.531,2.531,0,0,0,162.693-245.155Zm-8.084-11.074h-2.9v2.359h2.9Zm0,2.773h-2.9v2.466h2.9Zm5.258-2.773h-2.611c-.018.234-.072.343-.414.415v1.944h3.025Zm0,2.773h-3.025v2.466h3.025Z" transform="translate(-128.355 258.137)" fill="#fff"/>
      <path id="パス_14" data-name="パス 14" d="M201.841-250.088h-7.31c0,.18-.036.36-.414.522v.99H198.6l.54-.685a.6.6,0,0,1,.541-.234.739.739,0,0,1,.5.2l1.206,1.152a.469.469,0,0,1,.162.307c0,.18-.18.251-.774.486a17.605,17.605,0,0,1-1.8,2.862,9.489,9.489,0,0,0,3.1.883l.053.162a2.543,2.543,0,0,0-1.242,1.764c-.018.144-.036.306-.18.306a.691.691,0,0,1-.27-.09,9.16,9.16,0,0,1-2.826-1.639,7.866,7.866,0,0,1-3.979,1.62,2.132,2.132,0,0,1-1.08.324c-.594,0-.594-.306-.594-.648v-2.448c-.648.342-3.907,1.836-4.61,2.214-.072.306-.125.468-.306.468-.108,0-.2-.054-.288-.288l-.81-2.287c.594-.072,1.422-.162,1.746-.2v-5.743h-1.8l-.216-.4H199.41l.829-1.17a.343.343,0,0,1,.288-.18c.126,0,.2.072.324.18l1.135.991a.492.492,0,0,1,.18.324C202.165-250.142,202-250.088,201.841-250.088Zm-2.07-5.491v3.277c0,.288,0,.432-.45.684a2.672,2.672,0,0,1-1.188.342c-.4,0-.63-.2-.63-.5v-.342h-6.95v.324c0,.432-1.08.864-1.783.864-.486,0-.5-.378-.5-.612v-6.1l2.395.9h6.806l.558-.72a.483.483,0,0,1,.4-.18.669.669,0,0,1,.4.144l1.3.936a.363.363,0,0,1,.18.306C200.292-256.065,200.238-256.012,199.77-255.579Zm-7.814,5.491h-1.548c.036.288-.252.45-.486.558v.99h2.035Zm0,1.945h-2.035v1.548h2.035Zm0,1.945h-2.035v1.6c.738-.09,1.3-.144,2.035-.234Zm5.546-10.137h-6.95v1.692h6.95Zm0,2.088h-6.95v1.711h6.95Zm-2.809,6.068h-.576v5.96a9.953,9.953,0,0,0,2.431-1.872A6.638,6.638,0,0,1,194.693-248.179Zm.648,0a5.71,5.71,0,0,0,2.143,2.791,9.894,9.894,0,0,0,1.1-2.791Z" transform="translate(-147.515 258.118)" fill="#fff"/>
      <path id="パス_15" data-name="パス 15" d="M238.63-241.716c-.144.558-.162.612-.4.612a9.606,9.606,0,0,1-2.179-.666,8.023,8.023,0,0,1-3.259-2.359c-2.845,1.35-4.5,2.035-6.878,2.989-.216.324-.288.432-.468.432a.345.345,0,0,1-.252-.217l-.936-2.736c.972,0,1.6-.018,2.557-.09v-4.663h-2.971l-.216-.414h3.187v-8.643l2.431,1.171h5.869l1.1-1.116a.37.37,0,0,1,.288-.163.629.629,0,0,1,.342.163l1.279.972a.467.467,0,0,1,.162.306c0,.181-.162.253-.306.253h-8.876v2.071h5.527l.919-1.171a.367.367,0,0,1,.288-.162.536.536,0,0,1,.324.144l1.189,1.045a.366.366,0,0,1,.162.306c0,.18-.162.234-.306.234h-8.1v2.071h5.689l.883-1.134a.4.4,0,0,1,.288-.162.554.554,0,0,1,.342.162l1.171.99a.376.376,0,0,1,.162.306c0,.18-.144.252-.306.252h-8.229v2.107h7.868l.972-1.188a.4.4,0,0,1,.307-.162.509.509,0,0,1,.324.162l1.26,1.045a.376.376,0,0,1,.161.324c0,.18-.18.234-.306.234H236.47l1.836,1.207c.126.072.163.144.163.216,0,.288-.306.288-.451.288a2.138,2.138,0,0,1-.45-.036c-.144.09-.27.162-1.441.828-.45.252-1.188.612-1.782.918a13.254,13.254,0,0,0,5.815,1.675v.18A2.143,2.143,0,0,0,238.63-241.716Zm-8.12-6.7h-1.4V-244c1.656-.144,1.836-.162,3.493-.36A12.862,12.862,0,0,1,230.51-248.414Zm.648,0a7.937,7.937,0,0,0,2.719,3.115,11.885,11.885,0,0,0,1.495-3.115Z" transform="translate(-166.495 258.083)" fill="#fff"/>
      <path id="パス_16" data-name="パス 16" d="M269.729-240.833a6.687,6.687,0,0,0,5.8-6.77c0-4.213-3.691-4.789-4.915-4.789a5.389,5.389,0,0,0-.756.055,1.774,1.774,0,0,1,.576,1.332,15,15,0,0,1-3.637,8.57c-.5.523-1.027,1.063-1.585,1.063a.922.922,0,0,1-.918-.918c-.09-.648-.126-.882-.4-1.171a2.528,2.528,0,0,1-.972-2.3,7.692,7.692,0,0,1,7.941-7.346c4.519,0,6.715,3.1,6.715,6.428,0,5.906-6.805,6.014-7.04,6.014a5.05,5.05,0,0,1-.81-.055Zm-5.006-5.366c0,.126.036,2.124.774,2.124,1.333,0,3.854-4.915,3.854-7.292a4.144,4.144,0,0,0-.108-.846A6.315,6.315,0,0,0,264.723-246.2Z" transform="translate(-185.82 255.85)" fill="#fff"/>
      <path id="パス_17" data-name="パス 17" d="M306.86-248.755H304.3v6.014c0,.72-.09,1.782-2.017,1.782-.324,0-.54-.018-.54-.27a1.794,1.794,0,0,0-.089-.846c-.235-.522-1.423-.721-2.179-.846l.036-.18c.685.072,1.512.09,1.783.09.5,0,.846,0,.846-.774v-3.241c-.126.288-.541.4-.775.432a10.889,10.889,0,0,1-3.367,4l-.108-.144a11.58,11.58,0,0,0,1.459-5.33l2.538.757c.163.053.217.09.253.162v-1.6h-3.925l-.216-.4h4.142v-2.611h-1.35a14.926,14.926,0,0,1-2.953,2.341l-.126-.144c1.6-1.6,2.755-4,3.421-7.688l3.007.72a.279.279,0,0,1,.234.288.444.444,0,0,1-.288.414c1.494.091,2.773.757,2.773,2.071a.975.975,0,0,1-.991,1.044.943.943,0,0,1-1.062-.882,2.759,2.759,0,0,0-1.386-1.873,13.005,13.005,0,0,1-2.251,3.313h2.7l.63-.685c.09-.108.144-.18.288-.18.072,0,.108,0,.342.162l.828.558a.35.35,0,0,1,.162.307c0,.18-.162.234-.306.234h-1.027a1.152,1.152,0,0,1,.055.216c0,.324-.325.432-.541.5v1.89h.486l.558-.828a.334.334,0,0,1,.289-.18c.072,0,.108,0,.342.162l1.027.7a.355.355,0,0,1,.162.306C307.166-248.809,306.986-248.755,306.86-248.755Zm-.594,4.556c-.774,0-.81-.487-.9-1.693a3.963,3.963,0,0,0-.918-1.927l.126-.162c.865.252,2.845.811,2.845,2.5A1.173,1.173,0,0,1,306.266-244.2Zm8.39,1.134a2.239,2.239,0,0,0-1.674,1.566c-.054.27-.126.342-.27.342-.522,0-2.395-1.98-3.025-3.313a19.44,19.44,0,0,1-5.078,3.223l-.09-.162a18.881,18.881,0,0,0,4.447-4.268c-1.189-2.646-1.422-4.789-1.368-9.4h-.954l-.216-.4h4.843l.595-.576a.789.789,0,0,1,.54-.306.978.978,0,0,1,.594.288l1.134.9a.536.536,0,0,1,.252.414c0,.234-.072.288-.612.775-.288,2.358-.829,5.6-2.737,8.066a9.164,9.164,0,0,0,3.637,2.664Zm-6.428-12.009c-.018,3.943,1.026,6.68,1.764,7.634a19.619,19.619,0,0,0,1.333-7.634Z" transform="translate(-203.14 257.92)" fill="#fff"/>
      <path id="パス_18" data-name="パス 18" d="M352.669-247.1h-2.053v2.161c0,.793-1.152,1.008-1.765,1.008-.45,0-.45-.233-.45-.486v-.594h-2.557v2.575c0,.522,0,1.44-2.2,1.44-.81,0-.81-.054-.937-.828a1.165,1.165,0,0,0-.99-.954c-1.044-.252-1.171-.306-1.314-.342v-.18c.324.018,1.818.108,2.358.108.63,0,.757,0,.757-.45v-1.368h-5.438l-.216-.414h5.654V-247.1h-6.878l-.216-.4h7.094v-1.6h-5.2l-.216-.4h5.42v-1.314h-2.485c0,.324,0,.486-.324.684a2.16,2.16,0,0,1-1.35.306c-.5,0-.5-.162-.5-.432V-254.3l2.16.649h2.5v-1.206h-6.59l-.216-.4h6.806v-2.215l2.431.18c.288.018.378.108.378.288,0,.162-.036.2-.486.468v1.279h3.349l.972-1.171c.09-.108.144-.18.306-.18.126,0,.2.072.324.162l1.35,1.026a.47.47,0,0,1,.18.324c0,.18-.162.234-.324.234h-6.158v1.206h2.287l.756-.7a.686.686,0,0,1,.36-.18.541.541,0,0,1,.324.145l1.225.936a.336.336,0,0,1,.126.288c0,.2-.054.234-.576.63v1.531c0,.288,0,.432-.414.576l1.17.918c.036.036.162.144.162.252,0,.162-.216.325-.648.7v1.062l.684-1.1a.358.358,0,0,1,.288-.162.469.469,0,0,1,.324.162l.9.936a.472.472,0,0,1,.162.324C352.975-247.153,352.813-247.1,352.669-247.1Zm-9.146-6.158h-2.485v2.053h2.485Zm4.627,0h-2.3v2.053h2.3Zm.324,3.061c-.324,0-.324-.2-.324-.612h-2.3v1.314h2.5l.666-.774A5.048,5.048,0,0,1,348.475-250.2Zm-.072,1.1h-2.557v1.6H348.4Zm0,2h-2.557v1.675H348.4Z" transform="translate(-222.417 258.029)" fill="#fff"/>
      <path id="パス_19" data-name="パス 19" d="M381.428-253.761h-6.752l-.216-.415h4.34l.81-.99c.09-.108.144-.18.288-.18.09,0,.162.054.343.18l1.332.846a.41.41,0,0,1,.162.325C381.734-253.833,381.554-253.761,381.428-253.761Zm9.291,4.933h-2.2v6.014a1.434,1.434,0,0,1-.432,1.152,2.674,2.674,0,0,1-1.728.594c-.631,0-.631-.108-.631-.324,0-.738,0-.991-.324-1.26-.234-.18-.27-.2-1.98-.612l.036-.2c.4.036.954.036,1.35.036.54,0,1.26.09,1.26-.576v-4.826h-6.032l-.216-.4h6.248v-2.5H375.162l-.216-.414h3.439l.738-.936a.376.376,0,0,1,.306-.162.616.616,0,0,1,.324.162l1.116.811a.242.242,0,0,1,.108.126h3.1v-2.737h-2.9l-.216-.4h3.114v-2.269l2.557.234c.234.018.4.054.4.306,0,.306-.342.414-.63.486v1.243h1.26l.774-.9c.09-.108.144-.18.288-.18.108,0,.108.018.324.162l1.152.775a.5.5,0,0,1,.162.306c0,.18-.162.234-.306.234H386.4v2.737h1.837l.829-1.008a.357.357,0,0,1,.288-.18c.126,0,.2.072.306.162l1.116.865a.374.374,0,0,1,.163.342c0,.18-.163.234-.306.234h-1.675c0,.324-.126.414-.432.594v1.909h.054l.7-.865c.09-.108.144-.18.288-.18.108,0,.162.036.324.162l.972.738a.382.382,0,0,1,.162.306C391.025-248.881,390.881-248.827,390.719-248.827Zm-10.155-.828h-5.348L375-250.07h3.313l.72-.828a.367.367,0,0,1,.289-.162c.09,0,.108,0,.324.144l1.063.72a.4.4,0,0,1,.162.288C380.87-249.728,380.708-249.656,380.564-249.656Zm-.252-6.176H375.27l-.216-.4h2.9l.792-.972c.09-.108.144-.18.288-.18.091,0,.163.036.324.162l1.1.829a.448.448,0,0,1,.162.324C380.618-255.885,380.456-255.832,380.312-255.832Zm.361,9.309v3.457c0,.36,0,.54-.685.811a2.088,2.088,0,0,1-.882.162c-.432,0-.449-.215-.449-.378v-.612H377.3v.99c0,.288-.018.432-.486.666a3.36,3.36,0,0,1-1.134.288c-.307,0-.469-.126-.469-.648v-7.094l2.107,1.026H378.6l.558-.72a.478.478,0,0,1,.4-.162.482.482,0,0,1,.306.126l1.063.846a.7.7,0,0,1,.234.486C381.158-247.1,381.1-246.991,380.672-246.523Zm-2.017-.918H377.3v3.943h1.351Zm5.113,3.025c-.792,0-.828-.36-.9-1.224a2.807,2.807,0,0,0-1.566-2.269l.072-.18c2.431-.18,3.871.973,3.871,2.394C385.245-244.452,383.9-244.416,383.769-244.416Z" transform="translate(-241.353 258.065)" fill="#fff"/>
      <path id="パス_20" data-name="パス 20" d="M422.016-250.43a2.658,2.658,0,0,0-.666,1.62c.36-.144,1.944-.756,2.269-.9.072-.018.576-.234.576-.576a.546.546,0,0,0-.234-.4c-.072-.054-.144-.108-.144-.162,0-.108.216-.126.306-.126a2.252,2.252,0,0,1,2.2,1.945c0,.468-.5.468-.685.468a9.871,9.871,0,0,0-4.321.774c0,.216-.018.523,0,1.009.018.234.09,1.3.09,1.512a1.009,1.009,0,0,1-.846,1.062,1.138,1.138,0,0,1-.991-1.134c0-.27.163-1.477.18-1.729-1.747.918-2.467,1.638-2.467,2.448,0,1.243,1.315,1.531,2.647,1.531a14.962,14.962,0,0,0,3.187-.468,1.832,1.832,0,0,1,.414-.036c.577,0,1.35.45,1.35.955a.881.881,0,0,1-.486.738,14.012,14.012,0,0,1-3.511.36c-3.223,0-4.357-1.315-4.357-2.521,0-1.422.846-2.665,3.223-3.961-.072-.864-.288-1.891-1.315-1.891-1.513,0-2.484,2.305-2.755,2.971-.144.36-.288.738-.756.738-.486,0-.811-.342-.811-1.1a1.6,1.6,0,0,1,.649-1.531,9.8,9.8,0,0,0,2.142-3.259,10.186,10.186,0,0,1-1.117.072,2.1,2.1,0,0,1-2.179-1.441c0-.036.018-.108.072-.108s.252.18.306.2a2.444,2.444,0,0,0,1.333.324,10.812,10.812,0,0,0,2.233-.432,10.584,10.584,0,0,0,.918-2.737.819.819,0,0,0-.666-.81c-.108-.018-.162-.036-.162-.126,0-.216.5-.288.739-.288,1.044,0,2.214,1.045,2.214,1.639,0,.252-.126.342-.4.576-.234.18-.342.378-.775,1.117a5.58,5.58,0,0,0,1.711-.9,1.182,1.182,0,0,1,.612-.144c.576,0,1.315.378,1.315.847,0,.234-.144.432-.595.648a18.764,18.764,0,0,1-4.015,1.332c-.162.324-.991,1.8-1.1,2.107a4.051,4.051,0,0,1,1.891-.757c.595,0,1.009.306,1.783,1.3.108-.072.559-.522.666-.612a1.057,1.057,0,0,1,.288-.18Z" transform="translate(-260.85 258.011)" fill="#fff"/>
      <path id="パス_21" data-name="パス 21" d="M454.717-252a.873.873,0,0,0,.288-.576c0-.144-.036-.2-.288-.45-.162-.162-.18-.181-.18-.234,0-.09.108-.108.162-.108a3.211,3.211,0,0,1,2.773,2.161c0,.252-.361.288-.667.324a2.239,2.239,0,0,0-.378.126c-5.077,2.232-5.2,2.287-7.31,2.629-.018.648-.073,3.259.27,3.763a2.19,2.19,0,0,0,2.089.774,18.708,18.708,0,0,0,4.412-.63,1.779,1.779,0,0,1,.846-.162c.306,0,1.675.342,1.675,1.153,0,.18,0,.36-.936.738a11.691,11.691,0,0,1-3.566.414c-2.773,0-4.663-.2-5.528-.99-.792-.738-.792-2.791-.792-4.447,0-.432.036-2.377.036-2.773,0-.828,0-3.385-.469-3.889a2.422,2.422,0,0,0-.846-.594.119.119,0,0,1-.072-.091c0-.126.45-.27.882-.27,1.386,0,2.737.954,2.737,1.512a1.007,1.007,0,0,1-.18.5,18.475,18.475,0,0,0-.54,4.357C452.7-250.142,453.763-250.934,454.717-252Zm5.563-2.2a1.49,1.49,0,0,1-1.495,1.494,1.526,1.526,0,0,1-1.549-1.494,1.587,1.587,0,0,1,1.621-1.549A1.5,1.5,0,0,1,460.281-254.193Zm-2.647,0a1.123,1.123,0,0,0,1.152,1.08,1.072,1.072,0,0,0,1.081-1.08,1.092,1.092,0,0,0-1.008-1.135A1.183,1.183,0,0,0,457.634-254.193Z" transform="translate(-277.095 257.164)" fill="#fff"/>
      <path id="パス_22" data-name="パス 22" d="M481.027-243.192c1.134,0,6.68-.324,7.94-.378.162,0,.918-.234,1.1-.234.54,0,1.836.864,1.836,1.548,0,.27-.306.486-.684.486-.217,0-.631-.054-.937-.09a24.909,24.909,0,0,0-2.989-.27c-.648,0-5.258.342-5.834.432-.2.018-1.117.324-1.351.324s-1.836-.54-1.962-2.953A3.488,3.488,0,0,0,481.027-243.192Z" transform="translate(-292.984 251.457)" fill="#fff"/>
      <path id="パス_23" data-name="パス 23" d="M510.379-241.086a13,13,0,0,0,7.022-5.221,7.6,7.6,0,0,0-2.412-2.251,10.429,10.429,0,0,1-4.142,2.413l-.072-.144c2.575-1.674,5.024-5.851,5.024-6.968a1.4,1.4,0,0,0-.162-.486,3.8,3.8,0,0,1-.324-.486c0-.162.144-.18.252-.18a2.609,2.609,0,0,1,1.872.991c.18.2.684.756.684,1.026,0,.072-.018.126-.216.234-.073.054-.36.2-.4.234.144.018.865.036,1.008.036a4.863,4.863,0,0,0,1.35-.27c.7-.486.774-.54,1.008-.54.36,0,.792.45,1.063.72s.774.774.774,1.026c0,.162-.072.234-.72.63-.324.216-.36.288-.613.937a13.3,13.3,0,0,1-1.674,3.06,3.784,3.784,0,0,1,.63,1.693c0,.179-.144.954-.757.954-.684,0-.9-.4-1.242-1.008a11.527,11.527,0,0,1-7.959,3.745Zm9.435-9.686c0-.109-.054-.144-.144-.144-.252,0-1.387.2-1.657.2a1.916,1.916,0,0,1-1.008-.486,20.021,20.021,0,0,1-1.747,2.359,9.492,9.492,0,0,1,3.007,1.242A15.555,15.555,0,0,0,519.814-250.772Z" transform="translate(-309.036 256.498)" fill="#fff"/>
      <path id="パス_24" data-name="パス 24" d="M544.053-243.192c1.134,0,6.679-.324,7.94-.378.163,0,.919-.234,1.1-.234.54,0,1.837.864,1.837,1.548,0,.27-.306.486-.685.486-.216,0-.63-.054-.936-.09a24.9,24.9,0,0,0-2.989-.27c-.648,0-5.257.342-5.834.432-.2.018-1.116.324-1.35.324s-1.836-.54-1.963-2.953A3.487,3.487,0,0,0,544.053-243.192Z" transform="translate(-324.365 251.457)" fill="#fff"/>
      <path id="パス_25" data-name="パス 25" d="M579.706-242.724a1.748,1.748,0,0,1-1.746,1.747,1.737,1.737,0,0,1-1.747-1.747,1.748,1.748,0,0,1,1.747-1.746A1.748,1.748,0,0,1,579.706-242.724Z" transform="translate(-341.835 251.529)" fill="#fff"/>
      <path id="パス_26" data-name="パス 26" d="M593.518-242.8a11.591,11.591,0,0,0,7.094-7.238,16.275,16.275,0,0,0,.865-3.368c0-.108-.055-.18-.271-.18a45.914,45.914,0,0,0-5.959,1.171,5.49,5.49,0,0,1-.63.234,2.793,2.793,0,0,1-2.017-2.593c0-.234.018-.288.09-.288s.27.306.325.36a1.655,1.655,0,0,0,1.314.612,64.968,64.968,0,0,0,7.634-.864c.09-.055.414-.307.486-.342a.667.667,0,0,1,.27-.072c.576,0,1.909,1.459,1.909,1.747,0,.252-.072.288-.738.684a1.529,1.529,0,0,0-.595.972c-1.71,5.528-4.429,8.841-9.776,9.309Zm12.262-12.766c0,.4-.234.648-.5.648-.378,0-.594-.342-.774-.666a5.847,5.847,0,0,0-1.962-1.837C604.2-257.488,605.78-256.516,605.78-255.562Zm-1.4-3.025c.918,0,2.953.558,2.953,1.656,0,.4-.2.595-.558.595-.27,0-.558-.324-.684-.5a4.863,4.863,0,0,0-2.287-1.693A2.607,2.607,0,0,1,604.375-258.587Z" transform="translate(-349.97 258.587)" fill="#fff"/>
      <path id="パス_27" data-name="パス 27" d="M625.267-240.977a9.777,9.777,0,0,0,4-8.5c0-.612,0-1.944-.36-2.286-.108-.09-.72-.378-.72-.5,0-.2.9-.252,1.025-.252a3.6,3.6,0,0,1,2.485,1.386c0,.126-.414.5-.432.595-.072.234-.252,2.323-.306,2.754a7.884,7.884,0,0,1-3.259,5.834,6.969,6.969,0,0,1-2.341,1.134Zm16.366-7.742c-1.477,3.24-4.933,5.384-5.8,5.888a1.575,1.575,0,0,0-.63.558c-.306.522-.342.576-.576.576-.7,0-1.98-2.07-1.98-2.431a4.039,4.039,0,0,1,.252-.648,37.4,37.4,0,0,0,.181-4.591,19.274,19.274,0,0,0-.127-2.971,1.189,1.189,0,0,0-.54-.72c-.09-.054-.594-.252-.594-.36,0-.252.522-.414.918-.414,1.026,0,2.665,1.008,2.665,1.53a3.951,3.951,0,0,1-.306.612,30.747,30.747,0,0,0-.414,5.8c0,1.17,0,1.314.468,1.314,1.513,0,5.059-2.773,6.41-4.195Z" transform="translate(-366.231 256.21)" fill="#fff"/>
      <path id="パス_28" data-name="パス 28" d="M665.385-243.858a.65.65,0,0,1-.612.72.792.792,0,0,1-.792-.522,5.831,5.831,0,0,0-1.621-2.413C663.891-245.929,665.385-244.867,665.385-243.858Zm-1.008,6.824a11.135,11.135,0,0,0,6.644-9.021c0-.468-.073-.558-.648-1.224,2.143.108,2.737,1.513,2.737,1.657,0,.161-.09.216-.342.4-.108.072-.2.2-.361.774a12.158,12.158,0,0,1-2.466,4.717c-2.161,2.161-3.529,2.719-5.528,2.845Zm3.961-7.671a.656.656,0,0,1-.612.739.827.827,0,0,1-.792-.523,5.7,5.7,0,0,0-1.62-2.431C666.843-246.757,668.338-245.694,668.338-244.7Z" transform="translate(-384.715 252.933)" fill="#fff"/>
      <path id="パス_29" data-name="パス 29" d="M690.434-241.14a13.466,13.466,0,0,0,7.365-6.212,12.215,12.215,0,0,0,1.243-3.169c0-.108-.054-.144-.127-.144-.053,0-1.476.306-1.746.342a4.84,4.84,0,0,1-.774.072,1.7,1.7,0,0,1-1.08-.414,11.284,11.284,0,0,1-5.708,4.339l-.053-.125a12.652,12.652,0,0,0,4.951-7.185.757.757,0,0,0-.216-.54c-.018-.018-.288-.27-.288-.288,0-.127.27-.127.342-.127,1.4,0,2.755,1.081,2.755,1.711,0,.2-.181.27-.5.414-.361.144-.4.2-.721.828a2.226,2.226,0,0,0,.829.18,6.94,6.94,0,0,0,2.611-.792c.576-.432.648-.468.792-.468.342,0,.774.4,1.458,1.044.486.468.559.522.559.738,0,.36-.2.45-.846.72a3.874,3.874,0,0,0-.378.684c-3.079,6.428-6.626,8.21-10.443,8.57Z" transform="translate(-398.25 256.589)" fill="#fff"/>
      <path id="パス_30" data-name="パス 30" d="M723.082-243.354c-.071.486-.126.738-.414.738-.18,0-.288-.162-.378-.36l-1.152-2.755c.774-.252,1.1-.36,1.584-.558v-10.065l2.575.252a.348.348,0,0,1,.324.324c0,.109-.054.162-.541.576v7.977c2.27-.954,4.484-1.963,6.681-3.061l.108.144C730.284-248.413,727.169-246.145,723.082-243.354Zm12.964,1.854c-1.116,0-1.26-1.134-1.3-1.494-.108-1.369-.144-1.6-.72-2.2a6.985,6.985,0,0,1-1.621,1.71c-2.466,1.98-7.022,2.089-8.444,2.089v-.18c5.6-.954,8.3-3.385,9.147-7.706a41.936,41.936,0,0,0,.323-7.58l2.629.288a.429.429,0,0,1,.432.4c0,.252-.144.36-.648.7.036,3.457.071,6.788-1.314,9.435,2.034.792,2.772,2,2.772,3.115A1.28,1.28,0,0,1,736.046-241.5ZM729.6-251.87c-1.117,0-1.3-.937-1.4-1.621-.288-1.692-.576-2.953-2.3-3.547v-.181a5.089,5.089,0,0,1,.647-.035c2.269,0,4.591,1.674,4.591,3.673A1.548,1.548,0,0,1,729.6-251.87Z" transform="translate(-413.966 257.92)" fill="#fff"/>
      <path id="パス_31" data-name="パス 31" d="M774.833-248.954H768.3c.828,1.818,3.114,3.673,6.77,4.5v.18a2.341,2.341,0,0,0-1.548,1.873c-.091.433-.091.486-.2.486-.54,0-4.105-2.143-5.348-6.086v6.086c0,.828-1.459.937-1.585.937-.611,0-.72-.325-.72-.594v-5.114a14.881,14.881,0,0,1-7.2,4.736l-.09-.18a16.157,16.157,0,0,0,5.78-6.824h-5.4l-.216-.4h7.13v-5.276h-6.013l-.216-.414h6.229v-2.539l2.665.217a.3.3,0,0,1,.324.306c0,.2-.054.306-.685.612v1.4h3.3l.954-1.116c.09-.109.144-.181.289-.181.126,0,.18.054.324.162l1.26.991a.433.433,0,0,1,.162.306c0,.18-.144.252-.306.252h-5.978v5.276h.469A16.13,16.13,0,0,0,769.683-254l2.9.918c.162.054.288.144.288.324,0,.36-.27.36-.738.36-.433.433-2.539,2.593-3.061,3.043h2.9l1.044-1.224a.326.326,0,0,1,.289-.163c.125,0,.18.055.324.163l1.369,1.08a.445.445,0,0,1,.144.288C775.139-249.027,775.013-248.954,774.833-248.954Zm-11.307-.792a1,1,0,0,1-1.1-1.08,3.371,3.371,0,0,0-1.639-3.007l.055-.2c2.431,0,3.979,1.477,3.979,2.611C764.822-250.574,764.318-249.747,763.525-249.747Z" transform="translate(-432.505 258.083)" fill="#fff"/>
      <path id="パス_32" data-name="パス 32" d="M804.8-240.833a6.687,6.687,0,0,0,5.8-6.77c0-4.213-3.691-4.789-4.915-4.789a5.4,5.4,0,0,0-.757.055,1.773,1.773,0,0,1,.577,1.332,15,15,0,0,1-3.637,8.57c-.5.523-1.026,1.063-1.585,1.063a.922.922,0,0,1-.918-.918c-.09-.648-.126-.882-.4-1.171a2.527,2.527,0,0,1-.972-2.3,7.692,7.692,0,0,1,7.94-7.346c4.519,0,6.716,3.1,6.716,6.428,0,5.906-6.806,6.014-7.04,6.014a5.05,5.05,0,0,1-.81-.055Zm-5.005-5.366c0,.126.036,2.124.774,2.124,1.332,0,3.853-4.915,3.853-7.292a4.223,4.223,0,0,0-.108-.846A6.314,6.314,0,0,0,799.793-246.2Z" transform="translate(-452.237 255.85)" fill="#fff"/>
      <path id="パス_33" data-name="パス 33" d="M848.644-249.458c-.071.414-.089.5-.288.5a6.817,6.817,0,0,1-2.934-1.746c-.018.162-.18.2-.306.2h-2.305a.428.428,0,0,1,.036.162c0,.144-.09.216-.378.4v3.1h1.89l.99-1.225a.319.319,0,0,1,.288-.162.559.559,0,0,1,.324.162l1.17,1.063a.431.431,0,0,1,.18.342c0,.18-.162.234-.306.234h-4.537v4.286h3.619l1.026-1.333a.388.388,0,0,1,.306-.18.507.507,0,0,1,.323.162l1.387,1.189a.4.4,0,0,1,.162.324c0,.18-.162.234-.306.234H833.556l-.216-.4h6.716v-4.286h-4.987l-.216-.414h5.2V-250.5h-3.025a13.267,13.267,0,0,1-4.286,1.854l-.072-.162c4.159-2.125,6.158-6.806,6.95-8.913l3.1.739c.162.036.432.18.432.378,0,.234-.162.36-.45.523,1.764,3.241,5.275,4.267,7.185,4.789v.2A2.1,2.1,0,0,0,848.644-249.458Zm-6.445-6.465h-.181a23.088,23.088,0,0,1-4.429,5.024h5.185l.7-1.1a.343.343,0,0,1,.288-.18.612.612,0,0,1,.343.162l.252.216A12.1,12.1,0,0,1,842.2-255.922Z" transform="translate(-469.497 258.155)" fill="#fff"/>
      <path id="パス_34" data-name="パス 34" d="M887.035-247.766v5.69c0,1.062-1.1,1.062-1.35,1.062-.468,0-.5-.108-.5-.36,0-.882,0-.955-.45-1.027,0,.2,0,.271-.126.379a1.471,1.471,0,0,1-.9.306c-.324,0-.486-.054-.486-.432v-3.871H882.7v3.709c0,.27,0,.4-.162.468a2.355,2.355,0,0,1-.918.252c-.45,0-.45-.234-.45-.576v-3.853h-.523v4.357c0,.486-.846.648-1.152.648-.378,0-.5-.144-.5-.4v-3.421a7.58,7.58,0,0,1-3.241,3.71l-.126-.162a7.472,7.472,0,0,0,1.783-3.151.987.987,0,0,1-.811.5.727.727,0,0,1-.7-.756c0-.162.054-.846.054-.99a3.139,3.139,0,0,0-.36-1.567v5.51c0,.234,0,.27-.071.324a2.189,2.189,0,0,1-1.152.36c-.649,0-.649-.18-.649-.486v-5.1a1.528,1.528,0,0,1-.216.09,10.28,10.28,0,0,1-2.161,4.285l-.162-.108a22.844,22.844,0,0,0,.486-5.222l2.052.523v-1.225c-.522.18-.576.2-1.1.36-.072.306-.126.468-.343.468a.311.311,0,0,1-.305-.27l-.613-2.358c.234,0,1.243.036,1.441.036a12.956,12.956,0,0,0,2.791-4.915l2.395,1.044.036.018v-1.3l2.017.973h4.735l.559-.684a.517.517,0,0,1,.377-.18.733.733,0,0,1,.307.09l1.278.955a.3.3,0,0,1,.144.27,1.225,1.225,0,0,1-.5.792v2.179c0,.576-1.153.72-1.423.72-.2,0-.7,0-.7-.378v-.379h-4.826v1.26l.721.451h4.609l.5-.522a.408.408,0,0,1,.342-.126.568.568,0,0,1,.288.09l.936.775a.407.407,0,0,1,.145.342C887.522-248.36,887.431-248.234,887.035-247.766Zm-11.091-8.121a9.842,9.842,0,0,1-2.124,2,1.415,1.415,0,0,1,.485,1.116,1.3,1.3,0,0,1-1.206,1.314c-.793,0-.811-.685-.846-1.4a2.479,2.479,0,0,0-1.062-1.98L871.3-255a5.441,5.441,0,0,1,2.017.738,14.834,14.834,0,0,0,.63-3.2l2.539,1.008c.126.054.252.126.252.252C876.736-255.9,876.43-255.9,875.944-255.887Zm-.522,4.43a12.951,12.951,0,0,1-1.945,1.4c1.17-.018,1.44-.018,2.647-.126A2.989,2.989,0,0,0,875.422-251.457Zm2.592-1.891a2.1,2.1,0,0,1-.667.036,10.5,10.5,0,0,1-1.62,1.6c.594.252,2.233,1.081,2.233,2.61,0,.612-.306,1.333-.99,1.333a.681.681,0,0,1-.7-.7c0-.126.036-.738.036-.864a4.309,4.309,0,0,1-.72.305v1.369c.865.45,2.035,1.26,1.963,2.629a20.012,20.012,0,0,0,.468-3.547Zm9.633-2.557H877.511l-.216-.4h7.761l.864-.936c.09-.108.144-.18.288-.18.108,0,.126.018.324.144l1.243.828a.351.351,0,0,1,.179.306C887.953-255.958,887.792-255.9,887.648-255.9Zm-2.845,2.089h-4.826v2.574H884.8Zm-3.637,5.077h-.523v2.3h.523Zm2.052,0H882.7v2.3h.522Zm2.143,0h-.63v2.3h.63Zm0,2.719h-.63v3.294c.378.019.414.019.522-.018.108-.054.108-.107.108-.612Z" transform="translate(-488.427 258.029)" fill="#fff"/>
      <path id="パス_35" data-name="パス 35" d="M925.733-244.759h-3.061v2.809c0,.432-1.008.738-1.333.738s-.594-.126-.594-.432v-3.115h-4.933l-.144-.252a11.913,11.913,0,0,1-5.762,4l-.054-.181a13.18,13.18,0,0,0,3.4-3.223c-.63-.18-.63-.7-.63-1.243,0-.361,0-.378-.307-.811a8.82,8.82,0,0,1-2.574,1.494l-.072-.18a10.249,10.249,0,0,0,2.593-4.862h-2.52l-.216-.414H912.7v-2.251h-1.441l-.179-.343a10.956,10.956,0,0,1-1.333.757l-.126-.144a11.252,11.252,0,0,0,2.611-5.42l2.7.738c.234.072.36.234.36.342a.286.286,0,0,1-.252.27c-.09.036-.522.144-.63.18-.144.234-.288.414-.432.63h8.7l.828-1.08a.341.341,0,0,1,.288-.162c.108,0,.126,0,.342.144l1.423.937a.4.4,0,0,1,.18.306c0,.18-.144.252-.306.252h-1.944c.054.054.072.09.072.108,0,.27-.36.4-.54.45v1.315l.54-.666c.072-.09.126-.181.288-.181a.5.5,0,0,1,.325.163l1.062.846a.408.408,0,0,1,.18.306c0,.2-.18.253-.324.253h-2.07v2.251h.108l.81-1.062a.358.358,0,0,1,.288-.18.467.467,0,0,1,.324.162l1.207.919a.425.425,0,0,1,.18.324c0,.18-.162.252-.305.252h-2.414a.3.3,0,0,1-.089.324,4.392,4.392,0,0,1-.45.36v.864h.595l.612-.864a.343.343,0,0,1,.289-.18c.126,0,.2.054.341.162l.919.72a.411.411,0,0,1,.2.324c0,.2-.181.252-.306.252h-2.647v2.881h.684l.828-1.009a.3.3,0,0,1,.288-.18c.072,0,.144.018.323.162l1.063.864a.43.43,0,0,1,.181.324C926.039-244.831,925.9-244.759,925.733-244.759ZM912.7-254.265a9.9,9.9,0,0,1-1.494,1.17H912.7Zm1.4,5.905a10.688,10.688,0,0,1-1.1,1.279,1.717,1.717,0,0,1,1.422.63,8.847,8.847,0,0,0,.594-1.909Zm6.644-1.657h-6.824l1.081.4c.144.054.2.072.2.2,0,.091-.018.163-.108.2a3.311,3.311,0,0,1-.45.144c-.036.054-.2.27-.234.306h.828l.414-.433a.644.644,0,0,1,.486-.216.777.777,0,0,1,.306.109l1.279.954v-.972l1.98.864h1.044Zm-5.221-5.257h-.792v2.178h.792Zm0,2.593h-.792v2.251h.792Zm2.2,4.987c-.109.09-.379.27-.559.4a10.452,10.452,0,0,1-1.368,2.125h1.927Zm.576-7.58h-.811v2.178h.811Zm0,2.593h-.811v2.251h.811Zm2.448,4.627h-1.188v2.881h1.188Zm.342-7.22h-.864v2.178h.864Zm0,2.593h-.864v2.251h.864Z" transform="translate(-507.604 258.209)" fill="#fff"/>
      <path id="パス_36" data-name="パス 36" d="M963.062-249.4a1.294,1.294,0,0,1-1.189-.882c-.108-.234-.5-1.3-.595-1.512-.774.162-4.249.955-4.969,1.1-.774.162-4.231.792-4.952.936l1.963.846H960.2l.5-.594a.813.813,0,0,1,.558-.252,1.191,1.191,0,0,1,.5.162l1.279.919a.437.437,0,0,1,.18.342.566.566,0,0,1-.216.45,3.359,3.359,0,0,0-.36.4v5.258c0,.666-1.026,1.044-1.531,1.044-.36,0-.883-.072-.883-.522v-.991h-7.04v.523a.562.562,0,0,1-.18.468,2.029,2.029,0,0,1-1.35.576c-.883,0-.973-.216-.973-.648v-7.85c-.2.036-.378.054-.54.072-.107.162-.288.415-.468.415a.264.264,0,0,1-.288-.217l-.829-2.826c.594-.018,3.223-.09,3.764-.09a51.509,51.509,0,0,0,2.16-5.4l3.1.937a.456.456,0,0,1,.342.36c0,.234-.2.288-.739.342a37.373,37.373,0,0,1-3.6,3.727c1.855-.054,5.581-.144,7.292-.2A9.014,9.014,0,0,0,958.11-255l.055-.18c4.051.378,6.247,2.79,6.247,4.375A1.4,1.4,0,0,1,963.062-249.4Zm-2.828.918h-7.04v5.294h7.04Z" transform="translate(-527.124 258.137)" fill="#fff"/>
      <path id="パス_37" data-name="パス 37" d="M991.677-255.634a22.749,22.749,0,0,1-1.368,2.809l.216.2a.457.457,0,0,1,.2.324c0,.251-.27.4-.5.54v9.957c0,.828-1.512.846-1.548.846-.775,0-.775-.378-.775-.612v-7.977a8.11,8.11,0,0,1-2.52,1.908l-.107-.144a21.476,21.476,0,0,0,3.745-9.507l3.06.828c.162.036.4.144.4.378S992.379-255.832,991.677-255.634Zm7.941,14.188h-3.025c-2.845,0-2.989-1.314-2.989-2.719v-13.089l2.719.288c.144.018.378.09.378.324,0,.252-.325.342-.792.487v6.373a25.542,25.542,0,0,0,2.971-4.969l2.647,1.368a.381.381,0,0,1,.234.324c0,.324-.36.324-.54.324h-.288a25.026,25.026,0,0,1-5.024,4.213v4c0,.973.684.973,1.171.973h1.981a1.249,1.249,0,0,0,1.26-.613,21.319,21.319,0,0,0,1.242-3.133h.18l-.307,3.187c-.018.252.055.378.523.7a.693.693,0,0,1,.378.612C1002.336-241.446,1000.464-241.446,999.618-241.446Z" transform="translate(-545.474 257.939)" fill="#fff"/>
    </g>
  </g>
</svg>
